{
.appVersion = "3343";
.formatVersion = 3;
DisplayStrings = (
A
);
axes = (
{
name = Half;
tag = HALF;
}
);
date = "2023-04-28 21:28:19 +0000";
familyName = "See You At The Pool";
fontMaster = (
{
axesValues = (
0
);
customParameters = (
{
name = typoAscender;
value = 0;
},
{
name = typoDescender;
value = 0;
},
{
name = typoLineGap;
value = 0;
},
{
name = winAscent;
value = 960;
},
{
name = winDescent;
value = 0;
},
{
name = hheaAscender;
value = 0;
},
{
name = hheaDescender;
value = 0;
},
{
name = strikeoutPosition;
value = 0;
},
{
name = strikeoutSize;
value = 0;
}
);
id = m01;
metricValues = (
{
pos = 800;
},
{
pos = 800;
},
{
pos = 560;
},
{
},
{
pos = -200;
},
{
}
);
name = Regular;
},
{
axesValues = (
100
);
customParameters = (
{
name = typoAscender;
value = 0;
},
{
name = typoDescender;
value = 0;
},
{
name = typoLineGap;
value = 0;
},
{
name = winAscent;
value = 960;
},
{
name = winDescent;
value = 0;
},
{
name = hheaAscender;
value = 0;
},
{
name = hheaDescender;
value = 0;
},
{
name = strikeoutPosition;
value = 0;
},
{
name = strikeoutSize;
value = 0;
}
);
id = "24904F53-3A70-4935-90A9-E5F7B2CEF4ED";
metricValues = (
{
pos = 800;
},
{
pos = 800;
},
{
pos = 560;
},
{
},
{
pos = -200;
},
{
}
);
name = Bent;
},
{
axesValues = (
250
);
customParameters = (
{
name = typoAscender;
value = 0;
},
{
name = typoDescender;
value = 0;
},
{
name = typoLineGap;
value = 0;
},
{
name = winAscent;
value = 960;
},
{
name = winDescent;
value = 0;
},
{
name = hheaAscender;
value = 0;
},
{
name = hheaDescender;
value = 0;
},
{
name = strikeoutPosition;
value = 0;
},
{
name = strikeoutSize;
value = 0;
}
);
id = "122BFFFD-FA2E-4F8F-B493-3A50D9628590";
metricValues = (
{
pos = 800;
},
{
pos = 800;
},
{
pos = 560;
},
{
},
{
pos = -200;
},
{
}
);
name = Sunk;
}
);
glyphs = (
{
glyphname = A;
lastChange = "2025-10-03 15:21:42 +0000";
layers = (
{
layerId = m01;
shapes = (
{
closed = 1;
nodes = (
(140,0,l),
(140,1,ls),
(140,106,o),
(140,212,o),
(140,320,q),
(460,320,l),
(460,214,o),
(460,109,o),
(460,0,q),
(540,0,l),
(540,191,o),
(540,383,o),
(540,580,qs),
(540,645,o),
(476,756,o),
(365,820,o),
(300,820,qs),
(235,820,o),
(124,756,o),
(60,645,o),
(60,580,qs),
(60,389,o),
(60,197,o),
(60,0,q)
);
},
{
closed = 1;
nodes = (
(140,580,ls),
(140,624,o),
(183,697,o),
(256,740,o),
(300,740,qs),
(344,740,o),
(417,697,o),
(460,624,o),
(460,580,qs),
(460,400,l),
(140,400,l)
);
}
);
width = 600;
},
{
layerId = "24904F53-3A70-4935-90A9-E5F7B2CEF4ED";
shapes = (
{
closed = 1;
nodes = (
(140,0,l),
(140,1,ls),
(160,109,o),
(173,249,o),
(160,320,q),
(480,320,l),
(493,249,o),
(480,107,o),
(460,0,q),
(540,0,l),
(570,145,o),
(570,435,o),
(540,580,qs),
(526,648,o),
(463,756,o),
(364,820,o),
(300,820,qs),
(234,820,o),
(118,755,o),
(53,644,o),
(60,580,qs),
(77,415,o),
(81,134,o),
(60,0,q)
);
},
{
closed = 1;
nodes = (
(140,580,ls),
(135,623,o),
(178,697,o),
(256,740,o),
(300,740,qs),
(343,740,o),
(412,698,o),
(455,625,o),
(460,580,qs),
(480,400,l),
(160,400,l)
);
}
);
width = 600;
},
{
layerId = "122BFFFD-FA2E-4F8F-B493-3A50D9628590";
shapes = (
{
closed = 1;
nodes = (
(140,0,l),
(140,1,ls),
(160,109,o),
(173,249,o),
(160,320,q),
(480,320,l),
(501,273,o),
(485,80,o),
(460,0,q),
(540,0,l),
(570,99,o),
(569,435,o),
(540,580,qs),
(521,672,o),
(455,796,o),
(356,860,o),
(290,860,qs),
(225,860,o),
(109,775,o),
(48,644,o),
(60,580,qs),
(87,431,o),
(89,140,o),
(60,0,q)
);
},
{
closed = 1;
nodes = (
(140,580,ls),
(135,626,o),
(174,720,o),
(247,780,o),
(290,780,qs),
(333,780,o),
(407,720,o),
(455,627,o),
(460,580,qs),
(480,400,l),
(160,400,l)
);
}
);
width = 600;
}
);
note = A;
unicode = (65,97);
},
{
glyphname = B;
lastChange = "2025-10-03 15:21:42 +0000";
layers = (
{
layerId = m01;
shapes = (
{
closed = 1;
nodes = (
(300,0,ls),
(365,0,o),
(476,64,o),
(540,175,o),
(540,240,qs),
(540,304,o),
(478,413,o),
(426,445,q),
(456,468,o),
(494,536,o),
(498,574,qs),
(500,592,o),
(500,600,qs),
(500,654,o),
(446,746,o),
(354,800,o),
(300,800,qs),
(60,800,l),
(60,600,o),
(60,400,o),
(60,200,o),
(60,0,q)
);
},
{
closed = 1;
nodes = (
(140,480,l),
(140,540,o),
(140,600,qs),
(140,640,o),
(140,679,o),
(140,720,q),
(300,720,ls),
(332,720,o),
(388,688,o),
(420,632,o),
(420,600,qs),
(420,551,o),
(350,480,o),
(300,480,qs)
);
},
{
closed = 1;
nodes = (
(140,80,l),
(140,133,o),
(140,186,o),
(140,240,qs),
(140,320,o),
(140,400,q),
(300,400,ls),
(344,400,o),
(417,357,o),
(460,284,o),
(460,240,qs),
(460,196,o),
(417,123,o),
(344,80,o),
(300,80,qs)
);
}
);
width = 600;
},
{
layerId = "24904F53-3A70-4935-90A9-E5F7B2CEF4ED";
shapes = (
{
closed = 1;
nodes = (
(300,0,ls),
(365,0,o),
(476,64,o),
(540,175,o),
(540,240,qs),
(540,304,o),
(478,413,o),
(426,445,q),
(456,468,o),
(494,536,o),
(498,574,qs),
(500,592,o),
(500,600,qs),
(500,654,o),
(446,746,o),
(354,800,o),
(300,800,qs),
(50,800,l),
(73,601,o),
(87,395,o),
(75,173,o),
(50,0,q)
);
},
{
closed = 1;
nodes = (
(170,480,l),
(170,525,o),
(155,600,qs),
(149,630,o),
(140,694,o),
(140,720,q),
(300,720,ls),
(332,720,o),
(388,688,o),
(420,632,o),
(420,600,qs),
(420,551,o),
(350,480,o),
(300,480,qs)
);
},
{
closed = 1;
nodes = (
(140,80,l),
(140,115,o),
(149,200,o),
(155,240,qs),
(170,339,o),
(170,400,q),
(300,400,ls),
(344,400,o),
(417,357,o),
(460,284,o),
(460,240,qs),
(460,196,o),
(417,123,o),
(344,80,o),
(300,80,qs)
);
}
);
width = 600;
},
{
layerId = "122BFFFD-FA2E-4F8F-B493-3A50D9628590";
shapes = (
{
closed = 1;
nodes = (
(300,0,ls),
(364,0,o),
(466,63,o),
(530,172,o),
(540,240,qs),
(549,301,o),
(481,421,o),
(426,455,q),
(452,476,o),
(478,528,o),
(492,575,qs),
(496,588,o),
(500,600,qs),
(516,650,o),
(461,758,o),
(354,830,o),
(300,830,qs),
(60,830,l),
(80,656,o),
(87,410,o),
(67,175,o),
(40,0,q)
);
},
{
closed = 1;
nodes = (
(170,490,l),
(170,536,o),
(155,620,qs),
(150,654,o),
(140,724,o),
(140,750,q),
(300,750,ls),
(332,750,o),
(396,701,o),
(429,630,o),
(420,600,qs),
(404,547,o),
(347,490,o),
(300,490,qs)
);
},
{
closed = 1;
nodes = (
(140,80,l),
(140,115,o),
(149,203,o),
(155,245,qs),
(170,350,o),
(170,410,q),
(300,410,ls),
(344,410,o),
(426,361,o),
(469,281,o),
(460,240,qs),
(450,194,o),
(408,122,o),
(343,80,o),
(300,80,qs)
);
}
);
width = 600;
}
);
note = B;
unicode = (66,98);
},
{
glyphname = C;
lastChange = "2025-10-03 15:21:42 +0000";
layers = (
{
layerId = m01;
shapes = (
{
closed = 1;
nodes = (
(40,400,o),
(40,220,qs),
(40,155,o),
(104,44,o),
(215,-20,o),
(280,-20,qs),
(329,-20,o),
(416,17,o),
(449,51,q),
(393,106,l),
(371,84,o),
(313,60,o),
(280,60,qs),
(236,60,o),
(163,103,o),
(120,176,o),
(120,220,qs),
(120,400,o),
(120,580,qs),
(120,624,o),
(163,697,o),
(236,740,o),
(280,740,qs),
(313,740,o),
(371,716,o),
(393,694,q),
(449,749,l),
(416,783,o),
(329,820,o),
(280,820,qs),
(215,820,o),
(104,756,o),
(40,645,o),
(40,580,qs)
);
}
);
width = 489;
},
{
layerId = "24904F53-3A70-4935-90A9-E5F7B2CEF4ED";
shapes = (
{
closed = 1;
nodes = (
(85,400,o),
(40,220,qs),
(25,158,o),
(90,47,o),
(213,-20,o),
(280,-20,qs),
(329,-20,o),
(416,17,o),
(449,51,q),
(393,106,l),
(371,84,o),
(313,60,o),
(280,60,qs),
(235,60,o),
(153,104,o),
(109,178,o),
(120,220,qs),
(165,400,o),
(120,580,qs),
(109,622,o),
(153,696,o),
(235,740,o),
(280,740,qs),
(313,740,o),
(371,716,o),
(393,694,q),
(449,749,l),
(416,783,o),
(329,820,o),
(280,820,qs),
(213,820,o),
(90,753,o),
(25,642,o),
(40,580,qs)
);
}
);
width = 489;
},
{
layerId = "122BFFFD-FA2E-4F8F-B493-3A50D9628590";
shapes = (
{
closed = 1;
nodes = (
(115,400,o),
(40,220,qs),
(16,162,o),
(81,50,o),
(213,-20,o),
(280,-20,qs),
(329,-20,o),
(416,17,o),
(449,51,q),
(393,106,l),
(371,84,o),
(313,60,o),
(280,60,qs),
(235,60,o),
(147,106,o),
(104,181,o),
(120,220,qs),
(195,400,o),
(120,580,qs),
(104,620,o),
(147,704,o),
(236,760,o),
(280,760,qs),
(309,760,o),
(364,723,o),
(393,694,q),
(449,749,l),
(410,789,o),
(326,840,o),
(280,840,qs),
(214,840,o),
(81,760,o),
(16,639,o),
(40,580,qs)
);
}
);
width = 489;
}
);
note = C;
unicode = (67,99);
},
{
glyphname = D;
lastChange = "2025-10-03 15:21:42 +0000";
layers = (
{
layerId = m01;
shapes = (
{
closed = 1;
nodes = (
(300,0,ls),
(365,0,o),
(476,64,o),
(540,175,o),
(540,240,qs),
(540,346,o),
(540,451,o),
(540,560,qs),
(540,625,o),
(476,736,o),
(365,800,o),
(300,800,qs),
(60,800,l),
(60,536,o),
(60,272,o),
(60,0,q)
);
},
{
closed = 1;
nodes = (
(140,80,l),
(140,291,o),
(140,502,o),
(140,720,q),
(300,720,ls),
(344,720,o),
(417,677,o),
(460,604,o),
(460,560,qs),
(460,400,o),
(460,240,qs),
(460,239,o),
(460,239,o),
(460,238,qs),
(460,195,o),
(416,122,o),
(343,80,o),
(300,80,qs)
);
}
);
width = 600;
},
{
layerId = "24904F53-3A70-4935-90A9-E5F7B2CEF4ED";
shapes = (
{
closed = 1;
nodes = (
(300,0,ls),
(363,0,o),
(458,64,o),
(521,171,o),
(540,240,qs),
(563,320,o),
(563,480,o),
(540,560,qs),
(521,629,o),
(458,736,o),
(363,800,o),
(300,800,qs),
(60,800,l),
(83,600,o),
(83,200,o),
(60,0,q)
);
},
{
closed = 1;
nodes = (
(140,80,l),
(163,240,o),
(163,560,o),
(140,720,q),
(300,720,ls),
(342,720,o),
(406,678,o),
(447,606,o),
(460,560,qs),
(505,400,o),
(460,240,q),
(460,239,o),
(460,238,o),
(459,238,q),
(446,192,o),
(405,122,o),
(342,80,o),
(300,80,qs)
);
}
);
width = 600;
},
{
layerId = "122BFFFD-FA2E-4F8F-B493-3A50D9628590";
shapes = (
{
closed = 1;
nodes = (
(300,0,ls),
(363,0,o),
(454,61,o),
(518,158,o),
(550,230,qs),
(584,307,o),
(581,482,o),
(550,570,qs),
(524,645,o),
(458,758,o),
(363,830,o),
(300,830,qs),
(60,830,l),
(105,630,o),
(105,200,o),
(60,0,q)
);
},
{
closed = 1;
nodes = (
(140,80,l),
(185,240,o),
(185,590,o),
(140,750,q),
(300,750,ls),
(342,750,o),
(405,701,o),
(449,623,o),
(470,570,qs),
(547,372,o),
(470,230,q),
(470,229,o),
(469,229,o),
(469,228,q),
(441,177,o),
(401,119,o),
(341,80,o),
(300,80,qs)
);
}
);
width = 600;
}
);
note = D;
unicode = (68,100);
},
{
glyphname = E;
lastChange = "2025-10-03 15:21:42 +0000";
layers = (
{
layerId = m01;
shapes = (
{
closed = 1;
nodes = (
(460,0,l),
(460,80,l),
(140,80,l),
(140,166,o),
(140,252,o),
(140,340,q),
(380,340,l),
(380,420,l),
(140,420,l),
(140,519,o),
(140,618,o),
(140,720,q),
(460,720,l),
(460,800,l),
(60,800,l),
(60,536,o),
(60,272,o),
(60,0,q)
);
}
);
width = 520;
},
{
layerId = "24904F53-3A70-4935-90A9-E5F7B2CEF4ED";
shapes = (
{
closed = 1;
nodes = (
(460,0,l),
(460,80,l),
(140,80,l),
(160,138,o),
(170,253,o),
(170,340,q),
(380,340,l),
(380,420,l),
(170,420,l),
(170,520,o),
(160,653,o),
(140,720,q),
(460,720,l),
(460,800,l),
(60,800,l),
(83,600,o),
(83,200,o),
(60,0,q)
);
}
);
width = 520;
},
{
layerId = "122BFFFD-FA2E-4F8F-B493-3A50D9628590";
shapes = (
{
closed = 1;
nodes = (
(460,0,l),
(460,80,l),
(140,80,l),
(173,138,o),
(190,253,o),
(190,340,q),
(380,340,l),
(380,420,l),
(190,420,l),
(190,525,o),
(173,674,o),
(140,740,q),
(460,740,l),
(460,830,l),
(39,830,l),
(107,629,o),
(107,200,o),
(40,0,q)
);
}
);
width = 520;
}
);
note = E;
unicode = (69,101);
},
{
glyphname = F;
lastChange = "2025-10-03 15:21:42 +0000";
layers = (
{
layerId = m01;
shapes = (
{
closed = 1;
nodes = (
(140,0,l),
(140,112,o),
(140,224,o),
(140,340,q),
(380,340,l),
(380,420,l),
(140,420,l),
(140,519,o),
(140,618,o),
(140,720,q),
(460,720,l),
(460,800,l),
(60,800,l),
(60,600,o),
(60,400,o),
(60,200,o),
(60,0,q)
);
}
);
width = 520;
},
{
layerId = "24904F53-3A70-4935-90A9-E5F7B2CEF4ED";
shapes = (
{
closed = 1;
nodes = (
(140,0,l),
(160,75,o),
(170,227,o),
(170,340,q),
(380,340,l),
(380,420,l),
(170,420,l),
(170,520,o),
(160,653,o),
(140,720,q),
(460,720,l),
(460,800,l),
(60,800,l),
(80,666,o),
(93,400,o),
(80,134,o),
(60,0,q)
);
}
);
width = 520;
},
{
layerId = "122BFFFD-FA2E-4F8F-B493-3A50D9628590";
shapes = (
{
closed = 1;
nodes = (
(140,0,l),
(160,75,o),
(170,227,o),
(170,340,q),
(380,340,l),
(380,420,l),
(170,420,l),
(170,528,o),
(160,684,o),
(140,750,q),
(460,750,l),
(460,830,l),
(50,830,l),
(70,700,o),
(84,356,o),
(70,62,o),
(50,0,q)
);
}
);
width = 520;
}
);
note = F;
unicode = (70,102);
},
{
glyphname = G;
lastChange = "2025-10-03 15:21:42 +0000";
layers = (
{
layerId = m01;
shapes = (
{
closed = 1;
nodes = (
(40,400,o),
(40,220,qs),
(40,155,o),
(104,44,o),
(215,-20,o),
(280,-20,qs),
(345,-20,o),
(456,44,o),
(520,155,o),
(520,220,qs),
(520,420,l),
(280,420,l),
(280,340,l),
(440,340,l),
(440,220,ls),
(440,176,o),
(397,103,o),
(324,60,o),
(280,60,qs),
(236,60,o),
(163,103,o),
(120,176,o),
(120,220,qs),
(120,400,o),
(120,580,qs),
(120,624,o),
(163,697,o),
(236,740,o),
(280,740,qs),
(309,740,o),
(362,721,o),
(382,704,qs),
(393,694,l),
(449,749,l),
(416,783,o),
(329,820,o),
(280,820,qs),
(215,820,o),
(104,756,o),
(40,645,o),
(40,580,qs)
);
}
);
width = 560;
},
{
layerId = "24904F53-3A70-4935-90A9-E5F7B2CEF4ED";
shapes = (
{
closed = 1;
nodes = (
(85,400,o),
(40,220,qs),
(25,158,o),
(90,47,o),
(213,-20,o),
(280,-20,qs),
(345,-20,o),
(456,44,o),
(520,155,o),
(520,220,qs),
(520,420,l),
(280,420,l),
(280,340,l),
(440,340,l),
(440,220,ls),
(440,176,o),
(397,103,o),
(324,60,o),
(280,60,qs),
(235,60,o),
(153,104,o),
(109,178,o),
(120,220,qs),
(165,400,o),
(120,580,qs),
(109,622,o),
(153,696,o),
(235,740,o),
(280,740,qs),
(309,740,o),
(362,721,o),
(382,704,qs),
(393,694,l),
(449,749,l),
(416,783,o),
(329,820,o),
(280,820,qs),
(213,820,o),
(90,753,o),
(25,642,o),
(40,580,qs)
);
}
);
width = 560;
},
{
layerId = "122BFFFD-FA2E-4F8F-B493-3A50D9628590";
shapes = (
{
closed = 1;
nodes = (
(115,400,o),
(40,220,qs),
(16,162,o),
(81,50,o),
(213,-20,o),
(280,-20,qs),
(344,-20,o),
(430,43,o),
(479,149,o),
(490,220,qs),
(520,420,l),
(280,420,l),
(280,340,l),
(440,340,l),
(410,220,ls),
(396,164,o),
(371,101,o),
(322,60,o),
(280,60,qs),
(235,60,o),
(147,106,o),
(104,181,o),
(120,220,qs),
(195,400,o),
(120,580,qs),
(104,620,o),
(148,709,o),
(236,770,o),
(280,770,qs),
(306,770,o),
(353,735,o),
(382,705,qs),
(393,694,l),
(449,749,l),
(405,794,o),
(324,850,o),
(280,850,qs),
(214,850,o),
(81,765,o),
(16,639,o),
(40,580,qs)
);
}
);
width = 560;
}
);
note = G;
unicode = (71,103);
},
{
glyphname = H;
lastChange = "2025-10-03 15:21:42 +0000";
layers = (
{
layerId = m01;
shapes = (
{
closed = 1;
nodes = (
(140,0,l),
(140,170,o),
(140,340,q),
(460,340,l),
(460,170,o),
(460,0,q),
(540,0,l),
(540,264,o),
(540,528,o),
(540,800,q),
(460,800,l),
(460,675,o),
(460,549,o),
(460,420,q),
(140,420,l),
(140,545,o),
(140,671,o),
(140,800,q),
(60,800,l),
(60,536,o),
(60,272,o),
(60,0,q)
);
}
);
width = 600;
},
{
layerId = "24904F53-3A70-4935-90A9-E5F7B2CEF4ED";
shapes = (
{
closed = 1;
nodes = (
(140,0,l),
(170,170,o),
(170,340,q),
(490,340,l),
(490,170,o),
(460,0,q),
(540,0,l),
(563,200,o),
(563,600,o),
(540,800,q),
(460,800,l),
(480,715,o),
(490,547,o),
(490,420,q),
(170,420,l),
(170,515,o),
(155,705,o),
(140,800,q),
(60,800,l),
(90,600,o),
(90,200,o),
(60,0,q)
);
}
);
width = 600;
},
{
layerId = "122BFFFD-FA2E-4F8F-B493-3A50D9628590";
shapes = (
{
closed = 1;
nodes = (
(140,0,l),
(190,188,o),
(190,340,q),
(510,340,l),
(510,188,o),
(460,0,q),
(540,0,l),
(596,200,o),
(596,630,o),
(540,830,q),
(460,830,l),
(487,714,o),
(517,506,o),
(510,420,q),
(190,420,l),
(190,511,o),
(162,729,o),
(140,830,q),
(60,830,l),
(105,630,o),
(105,200,o),
(60,0,q)
);
}
);
width = 600;
}
);
note = H;
unicode = (72,104);
},
{
glyphname = I;
lastChange = "2025-10-03 15:21:42 +0000";
layers = (
{
layerId = m01;
shapes = (
{
closed = 1;
nodes = (
(80,800,l),
(80,536,o),
(80,272,o),
(80,0,q),
(160,0,l),
(160,264,o),
(160,528,o),
(160,800,q)
);
}
);
width = 240;
},
{
layerId = "24904F53-3A70-4935-90A9-E5F7B2CEF4ED";
shapes = (
{
closed = 1;
nodes = (
(80,800,l),
(103,600,o),
(103,200,o),
(80,0,q),
(160,0,l),
(183,200,o),
(183,600,o),
(160,800,q)
);
}
);
width = 240;
},
{
layerId = "122BFFFD-FA2E-4F8F-B493-3A50D9628590";
shapes = (
{
closed = 1;
nodes = (
(80,830,l),
(118,630,o),
(118,200,o),
(80,0,q),
(160,0,l),
(198,200,o),
(198,630,o),
(160,830,q)
);
}
);
width = 240;
}
);
note = I;
unicode = (73,105);
},
{
glyphname = J;
lastChange = "2025-10-03 15:21:42 +0000";
layers = (
{
layerId = m01;
shapes = (
{
closed = 1;
nodes = (
(60,220,l),
(60,155,o),
(124,44,o),
(235,-20,o),
(300,-20,qs),
(365,-20,o),
(476,44,o),
(540,155,o),
(540,220,qs),
(540,411,o),
(540,603,o),
(540,800,q),
(460,800,l),
(460,655,o),
(460,510,o),
(460,365,o),
(460,220,qs),
(460,176,o),
(417,103,o),
(344,60,o),
(300,60,qs),
(256,60,o),
(183,103,o),
(140,176,o),
(140,220,q)
);
}
);
width = 600;
},
{
layerId = "24904F53-3A70-4935-90A9-E5F7B2CEF4ED";
shapes = (
{
closed = 1;
nodes = (
(60,220,l),
(60,155,o),
(124,44,o),
(235,-20,o),
(300,-20,qs),
(362,-20,o),
(464,54,o),
(529,166,o),
(540,220,qs),
(567,357,o),
(564,645,o),
(540,800,q),
(460,800,l),
(477,692,o),
(492,502,o),
(482,310,o),
(460,220,qs),
(452,187,o),
(409,113,o),
(341,60,o),
(300,60,qs),
(256,60,o),
(183,103,o),
(140,176,o),
(140,220,q)
);
}
);
width = 600;
},
{
layerId = "122BFFFD-FA2E-4F8F-B493-3A50D9628590";
shapes = (
{
closed = 1;
nodes = (
(60,250,l),
(60,182,o),
(111,57,o),
(206,-20,o),
(270,-20,qs),
(332,-20,o),
(434,54,o),
(499,166,o),
(510,220,qs),
(536,349,o),
(518,657,o),
(490,839,q),
(410,839,l),
(430,708,o),
(452,515,o),
(451,308,o),
(430,220,qs),
(422,187,o),
(379,113,o),
(311,60,o),
(270,60,qs),
(228,60,o),
(169,116,o),
(140,203,o),
(140,250,q)
);
}
);
width = 570;
}
);
note = J;
unicode = (74,106);
},
{
glyphname = K;
lastChange = "2025-10-03 15:21:42 +0000";
layers = (
{
layerId = m01;
shapes = (
{
closed = 1;
nodes = (
(140,0,l),
(140,59,o),
(140,119,o),
(140,180,qs),
(140,270,o),
(140,360,q),
(300,360,ls),
(344,360,o),
(417,317,o),
(460,244,o),
(460,200,qs),
(460,0,l),
(540,0,l),
(540,200,ls),
(540,276,o),
(454,399,o),
(384,425,q),
(420,459,o),
(460,549,o),
(460,600,qs),
(460,800,l),
(380,800,l),
(380,600,ls),
(380,556,o),
(337,483,o),
(264,440,o),
(220,440,qs),
(140,440,l),
(140,499,o),
(140,559,o),
(140,620,qs),
(140,679,o),
(140,739,o),
(140,800,q),
(60,800,l),
(60,600,o),
(60,400,o),
(60,200,o),
(60,0,q)
);
}
);
width = 600;
},
{
layerId = "24904F53-3A70-4935-90A9-E5F7B2CEF4ED";
shapes = (
{
closed = 1;
nodes = (
(140,0,l),
(140,39,o),
(149,135,o),
(155,180,qs),
(170,293,o),
(170,360,q),
(300,360,ls),
(344,360,o),
(419,317,o),
(462,243,o),
(460,200,qs),
(450,0,l),
(530,0,l),
(540,200,ls),
(544,275,o),
(455,399,o),
(384,425,q),
(421,460,o),
(462,550,o),
(460,600,qs),
(450,800,l),
(370,800,l),
(380,600,ls),
(382,557,o),
(339,483,o),
(264,440,o),
(220,440,qs),
(170,440,l),
(170,481,o),
(162,566,o),
(155,620,qs),
(149,665,o),
(140,761,o),
(140,800,q),
(60,800,l),
(81,617,o),
(93,404,o),
(81,188,o),
(60,0,q)
);
}
);
width = 600;
},
{
layerId = "122BFFFD-FA2E-4F8F-B493-3A50D9628590";
shapes = (
{
closed = 1;
nodes = (
(140,0,l),
(140,39,o),
(149,135,o),
(155,180,qs),
(170,293,o),
(170,360,q),
(300,360,ls),
(344,360,o),
(421,317,o),
(464,243,o),
(460,200,qs),
(440,0,l),
(520,0,l),
(540,200,ls),
(547,274,o),
(456,398,o),
(384,425,q),
(423,461,o),
(466,552,o),
(460,600,qs),
(430,830,l),
(350,830,l),
(380,600,ls),
(386,557,o),
(343,483,o),
(264,440,o),
(220,440,qs),
(170,440,l),
(170,481,o),
(157,573,o),
(145,635,qs),
(131,712,o),
(120,791,o),
(120,830,q),
(30,830,l),
(63,659,o),
(91,430,o),
(85,175,o),
(60,0,q)
);
}
);
width = 600;
}
);
note = K;
unicode = (75,107);
},
{
glyphname = L;
lastChange = "2025-10-03 15:21:42 +0000";
layers = (
{
layerId = m01;
shapes = (
{
closed = 1;
nodes = (
(460,0,l),
(460,80,l),
(140,80,l),
(140,318,o),
(140,555,o),
(140,800,q),
(60,800,l),
(60,536,o),
(60,272,o),
(60,0,q)
);
}
);
width = 520;
},
{
layerId = "24904F53-3A70-4935-90A9-E5F7B2CEF4ED";
shapes = (
{
closed = 1;
nodes = (
(460,0,l),
(460,80,l),
(140,80,l),
(170,260,o),
(170,620,o),
(140,800,q),
(60,800,l),
(89,607,o),
(81,210,o),
(50,0,q)
);
}
);
width = 520;
},
{
layerId = "122BFFFD-FA2E-4F8F-B493-3A50D9628590";
shapes = (
{
closed = 1;
nodes = (
(460,0,l),
(460,80,l),
(140,80,l),
(185,260,o),
(185,660,o),
(140,840,q),
(60,840,l),
(110,648,o),
(95,211,o),
(40,0,q)
);
}
);
width = 520;
}
);
note = L;
unicode = (76,108);
},
{
glyphname = M;
lastChange = "2025-10-03 15:21:42 +0000";
layers = (
{
layerId = m01;
shapes = (
{
closed = 1;
nodes = (
(140,0,l),
(140,330,o),
(140,660,qs),
(140,682,o),
(162,718,o),
(198,740,o),
(220,740,qs),
(252,740,o),
(300,694,o),
(300,662,qs),
(300,331,o),
(300,0,q),
(380,0,l),
(380,330,o),
(380,660,qs),
(380,682,o),
(402,718,o),
(438,740,o),
(460,740,qs),
(493,740,o),
(540,693,o),
(540,660,qs),
(540,330,o),
(540,0,q),
(620,0,l),
(620,330,o),
(620,660,qs),
(620,703,o),
(577,777,o),
(503,820,o),
(460,820,qs),
(432,820,o),
(381,802,o),
(360,785,qs),
(346,773,o),
(340,766,q),
(326,780,o),
(318,786,qs),
(297,802,o),
(247,820,o),
(220,820,qs),
(176,820,o),
(103,777,o),
(60,703,o),
(60,660,qs),
(60,330,o),
(60,0,q)
);
}
);
width = 680;
},
{
layerId = "24904F53-3A70-4935-90A9-E5F7B2CEF4ED";
shapes = (
{
closed = 1;
nodes = (
(140,0,l),
(200,330,o),
(140,660,qs),
(136,681,o),
(158,718,o),
(198,740,o),
(220,740,qs),
(251,740,o),
(294,696,o),
(300,662,qs),
(360,331,o),
(300,0,q),
(380,0,l),
(440,330,o),
(380,660,qs),
(376,681,o),
(398,718,o),
(438,740,o),
(460,740,qs),
(492,740,o),
(534,695,o),
(540,660,qs),
(600,330,o),
(540,0,q),
(620,0,l),
(680,330,o),
(620,660,qs),
(612,705,o),
(569,777,o),
(502,820,o),
(460,820,qs),
(432,820,o),
(381,802,o),
(360,785,qs),
(346,773,o),
(340,766,q),
(326,780,o),
(318,786,qs),
(297,802,o),
(247,820,o),
(220,820,qs),
(176,820,o),
(95,776,o),
(52,702,o),
(60,660,qs),
(120,330,o),
(60,0,q)
);
}
);
width = 680;
},
{
layerId = "122BFFFD-FA2E-4F8F-B493-3A50D9628590";
shapes = (
{
closed = 1;
nodes = (
(140,0,l),
(230,330,o),
(140,660,qs),
(134,681,o),
(157,744,o),
(199,790,o),
(220,790,qs),
(248,790,o),
(285,714,o),
(300,662,qs),
(390,331,o),
(300,0,q),
(380,0,l),
(470,330,o),
(380,660,qs),
(374,681,o),
(397,744,o),
(439,790,o),
(460,790,qs),
(489,790,o),
(525,714,o),
(540,660,qs),
(630,330,o),
(540,0,q),
(620,0,l),
(710,330,o),
(620,660,qs),
(606,712,o),
(564,805,o),
(501,870,o),
(460,870,qs),
(435,870,o),
(389,827,o),
(360,790,qs),
(350,778,o),
(340,766,q),
(338,768,o),
(318,793,qs),
(289,829,o),
(244,870,o),
(220,870,qs),
(177,870,o),
(93,801,o),
(49,701,o),
(60,660,qs),
(150,330,o),
(60,0,q)
);
}
);
width = 680;
}
);
note = M;
unicode = (77,109);
},
{
glyphname = N;
lastChange = "2025-10-03 15:21:42 +0000";
layers = (
{
layerId = m01;
shapes = (
{
closed = 1;
nodes = (
(140,0,l),
(140,218,o),
(140,436,o),
(140,660,qs),
(140,682,o),
(162,718,o),
(198,740,o),
(220,740,qs),
(249,740,o),
(294,703,o),
(299,675,qs),
(300,670,o),
(300,660,qs),
(300,400,o),
(300,140,qs),
(300,97,o),
(343,23,o),
(416,-20,o),
(460,-20,qs),
(495,-20,o),
(559,9,o),
(604,62,o),
(613,95,qs),
(620,115,o),
(620,140,qs),
(620,358,o),
(620,576,o),
(620,800,q),
(540,800,l),
(540,582,o),
(540,364,o),
(540,140,qs),
(540,129,o),
(537,118,qs),
(529,93,o),
(487,60,o),
(460,60,qs),
(438,60,o),
(402,82,o),
(380,118,o),
(380,140,qs),
(380,400,o),
(380,660,qs),
(380,674,o),
(379,681,qs),
(374,720,o),
(329,783,o),
(260,820,o),
(220,820,qs),
(176,820,o),
(103,777,o),
(60,703,o),
(60,660,qs),
(60,442,o),
(60,224,o),
(60,0,q)
);
}
);
width = 680;
},
{
layerId = "24904F53-3A70-4935-90A9-E5F7B2CEF4ED";
shapes = (
{
closed = 1;
nodes = (
(140,0,l),
(178,213,o),
(178,530,o),
(140,660,qs),
(134,681,o),
(156,718,o),
(198,740,o),
(220,740,qs),
(248,740,o),
(286,704,o),
(296,674,q),
(298,670,o),
(300,660,qs),
(365,366,o),
(300,140,qs),
(289,99,o),
(332,25,o),
(415,-20,o),
(460,-20,qs),
(494,-20,o),
(547,10,o),
(585,61,o),
(602,97,qs),
(611,119,o),
(620,140,qs),
(665,253,o),
(665,583,o),
(620,800,q),
(540,800,l),
(585,583,o),
(585,253,o),
(540,140,qs),
(536,130,o),
(531,119,qs),
(518,91,o),
(485,60,o),
(460,60,qs),
(438,60,o),
(396,82,o),
(374,119,o),
(380,140,qs),
(445,379,o),
(380,660,qs),
(378,670,o),
(375,680,qs),
(363,720,o),
(321,783,o),
(259,820,o),
(220,820,qs),
(175,820,o),
(91,775,o),
(48,701,o),
(60,660,qs),
(98,530,o),
(98,209,o),
(60,0,q)
);
}
);
width = 680;
},
{
layerId = "122BFFFD-FA2E-4F8F-B493-3A50D9628590";
shapes = (
{
closed = 1;
nodes = (
(140,0,l),
(201,214,o),
(200,531,o),
(140,660,qs),
(131,680,o),
(153,732,o),
(199,770,o),
(220,770,qs),
(246,770,o),
(278,719,o),
(294,675,qs),
(297,668,o),
(300,660,qs),
(411,375,o),
(300,140,qs),
(282,103,o),
(326,28,o),
(415,-20,o),
(460,-20,qs),
(494,-20,o),
(542,11,o),
(575,58,o),
(597,99,qs),
(607,118,o),
(620,140,qs),
(683,246,o),
(654,602,o),
(580,840,q),
(500,840,l),
(574,602,o),
(603,246,o),
(540,140,qs),
(535,130,o),
(529,120,qs),
(513,90,o),
(484,60,o),
(460,60,qs),
(438,60,o),
(393,84,o),
(371,121,o),
(380,140,qs),
(490,388,o),
(380,660,qs),
(376,670,o),
(372,680,qs),
(351,734,o),
(314,807,o),
(258,860,o),
(220,860,qs),
(176,860,o),
(86,793,o),
(42,699,o),
(60,660,qs),
(120,530,o),
(120,209,o),
(60,0,q)
);
}
);
width = 680;
}
);
note = N;
unicode = (78,110);
},
{
glyphname = O;
lastChange = "2025-10-03 15:21:42 +0000";
layers = (
{
layerId = m01;
shapes = (
{
closed = 1;
nodes = (
(60,400,o),
(60,220,qs),
(60,155,o),
(124,44,o),
(235,-20,o),
(300,-20,qs),
(365,-20,o),
(476,44,o),
(540,155,o),
(540,220,qs),
(540,400,o),
(540,580,qs),
(540,645,o),
(476,756,o),
(365,820,o),
(300,820,qs),
(235,820,o),
(124,756,o),
(60,645,o),
(60,580,qs)
);
},
{
closed = 1;
nodes = (
(140,400,o),
(140,580,qs),
(140,624,o),
(183,697,o),
(256,740,o),
(300,740,qs),
(344,740,o),
(417,697,o),
(460,624,o),
(460,580,qs),
(460,400,o),
(460,220,qs),
(460,176,o),
(417,103,o),
(344,60,o),
(300,60,qs),
(256,60,o),
(183,103,o),
(140,176,o),
(140,220,qs)
);
}
);
width = 600;
},
{
layerId = "24904F53-3A70-4935-90A9-E5F7B2CEF4ED";
shapes = (
{
closed = 1;
nodes = (
(105,400,o),
(60,220,qs),
(45,158,o),
(110,47,o),
(233,-20,o),
(300,-20,qs),
(364,-20,o),
(460,44,o),
(523,151,o),
(540,220,qs),
(585,400,o),
(540,580,qs),
(523,649,o),
(460,756,o),
(364,820,o),
(300,820,qs),
(233,820,o),
(110,753,o),
(45,642,o),
(60,580,qs)
);
},
{
closed = 1;
nodes = (
(185,400,o),
(140,580,qs),
(129,622,o),
(173,696,o),
(255,740,o),
(300,740,qs),
(343,740,o),
(407,698,o),
(448,626,o),
(460,580,qs),
(505,400,o),
(460,220,qs),
(448,174,o),
(407,102,o),
(343,60,o),
(300,60,qs),
(255,60,o),
(173,104,o),
(129,178,o),
(140,220,qs)
);
}
);
width = 600;
},
{
layerId = "122BFFFD-FA2E-4F8F-B493-3A50D9628590";
shapes = (
{
closed = 1;
nodes = (
(107,400,o),
(60,220,qs),
(44,158,o),
(109,47,o),
(233,-20,o),
(300,-20,qs),
(364,-20,o),
(460,44,o),
(522,151,o),
(540,220,qs),
(587,400,o),
(540,580,qs),
(522,651,o),
(459,773,o),
(363,850,o),
(300,850,qs),
(234,850,o),
(110,768,o),
(44,642,o),
(60,580,qs)
);
},
{
closed = 1;
nodes = (
(187,400,o),
(140,580,qs),
(129,622,o),
(173,711,o),
(256,770,o),
(300,770,qs),
(342,770,o),
(406,714,o),
(448,629,o),
(460,580,qs),
(507,400,o),
(460,220,qs),
(448,174,o),
(407,103,o),
(343,60,o),
(300,60,qs),
(255,60,o),
(173,105,o),
(129,179,o),
(140,220,qs)
);
}
);
width = 600;
}
);
note = O;
unicode = (79,111);
},
{
glyphname = P;
lastChange = "2025-10-03 15:21:42 +0000";
layers = (
{
layerId = m01;
shapes = (
{
closed = 1;
nodes = (
(140,0,l),
(140,62,o),
(140,123,qs),
(140,188,o),
(140,253,o),
(140,320,q),
(300,320,ls),
(365,320,o),
(476,384,o),
(540,495,o),
(540,560,qs),
(540,625,o),
(476,736,o),
(365,800,o),
(300,800,qs),
(60,800,l),
(60,600,o),
(60,400,o),
(60,200,o),
(60,0,q)
);
},
{
closed = 1;
nodes = (
(140,400,l),
(140,560,o),
(140,720,q),
(300,720,ls),
(344,720,o),
(417,677,o),
(460,604,o),
(460,560,qs),
(460,516,o),
(417,443,o),
(344,400,o),
(300,400,qs)
);
}
);
width = 600;
},
{
layerId = "24904F53-3A70-4935-90A9-E5F7B2CEF4ED";
shapes = (
{
closed = 1;
nodes = (
(137,0,l),
(137,53,o),
(150,142,qs),
(159,221,o),
(162,302,o),
(150,320,q),
(300,320,ls),
(366,320,o),
(492,385,o),
(570,496,o),
(570,560,qs),
(570,624,o),
(492,735,o),
(366,800,o),
(300,800,qs),
(60,800,l),
(83,707,o),
(90,446,o),
(75,188,o),
(60,0,q)
);
},
{
closed = 1;
nodes = (
(150,400,l),
(180,572,o),
(150,720,q),
(300,720,ls),
(345,720,o),
(433,677,o),
(490,603,o),
(490,560,qs),
(490,517,o),
(433,443,o),
(345,400,o),
(300,400,qs)
);
}
);
width = 600;
},
{
layerId = "122BFFFD-FA2E-4F8F-B493-3A50D9628590";
shapes = (
{
closed = 1;
nodes = (
(137,0,l),
(137,53,o),
(150,142,qs),
(159,221,o),
(162,302,o),
(150,320,q),
(300,339,ls),
(363,347,o),
(487,403,o),
(570,498,o),
(570,560,qs),
(570,626,o),
(490,759,o),
(364,838,o),
(300,830,qs),
(60,800,l),
(83,707,o),
(90,446,o),
(75,188,o),
(60,0,q)
);
},
{
closed = 1;
nodes = (
(150,400,l),
(180,572,o),
(150,720,q),
(300,750,ls),
(342,758,o),
(431,700,o),
(490,604,o),
(490,560,qs),
(490,518,o),
(431,459,o),
(344,425,o),
(300,419,qs)
);
}
);
width = 600;
}
);
note = P;
unicode = (80,112);
},
{
glyphname = Q;
lastChange = "2025-10-03 15:21:42 +0000";
layers = (
{
layerId = m01;
shapes = (
{
closed = 1;
nodes = (
(60,220,ls),
(60,159,o),
(116,55,o),
(214,-12,o),
(273,-19,q),
(297,-90,o),
(422,-180,o),
(500,-180,q),
(500,-100,l),
(454,-100,o),
(378,-53,o),
(357,-13,q),
(409,-1,o),
(493,67,o),
(540,164,o),
(540,220,qs),
(540,580,ls),
(540,645,o),
(476,756,o),
(365,820,o),
(300,820,qs),
(235,820,o),
(124,756,o),
(60,645,o),
(60,580,qs)
);
},
{
closed = 1;
nodes = (
(140,580,ls),
(140,624,o),
(183,697,o),
(256,740,o),
(300,740,qs),
(344,740,o),
(417,697,o),
(460,624,o),
(460,580,qs),
(460,220,ls),
(460,176,o),
(417,103,o),
(344,60,o),
(300,60,qs),
(256,60,o),
(183,103,o),
(140,176,o),
(140,220,qs)
);
}
);
width = 600;
},
{
layerId = "24904F53-3A70-4935-90A9-E5F7B2CEF4ED";
shapes = (
{
closed = 1;
nodes = (
(60,220,ls),
(60,159,o),
(116,55,o),
(214,-12,o),
(273,-19,q),
(297,-90,o),
(422,-180,o),
(500,-180,q),
(500,-100,l),
(454,-100,o),
(378,-53,o),
(357,-13,q),
(409,-1,o),
(493,67,o),
(540,164,o),
(540,220,qs),
(540,580,ls),
(540,645,o),
(476,756,o),
(365,820,o),
(300,820,qs),
(235,820,o),
(124,756,o),
(60,645,o),
(60,580,qs)
);
},
{
closed = 1;
nodes = (
(140,580,ls),
(140,624,o),
(183,697,o),
(256,740,o),
(300,740,qs),
(344,740,o),
(417,697,o),
(460,624,o),
(460,580,qs),
(460,220,ls),
(460,176,o),
(417,103,o),
(344,60,o),
(300,60,qs),
(256,60,o),
(183,103,o),
(140,176,o),
(140,220,qs)
);
}
);
width = 600;
},
{
layerId = "122BFFFD-FA2E-4F8F-B493-3A50D9628590";
shapes = (
{
closed = 1;
nodes = (
(60,220,ls),
(60,159,o),
(116,55,o),
(214,-12,o),
(273,-19,q),
(297,-90,o),
(422,-180,o),
(500,-180,q),
(500,-100,l),
(454,-100,o),
(378,-53,o),
(357,-13,q),
(409,-1,o),
(493,67,o),
(540,164,o),
(540,220,qs),
(540,580,ls),
(540,645,o),
(476,756,o),
(365,820,o),
(300,820,qs),
(235,820,o),
(124,756,o),
(60,645,o),
(60,580,qs)
);
},
{
closed = 1;
nodes = (
(140,580,ls),
(140,624,o),
(183,697,o),
(256,740,o),
(300,740,qs),
(344,740,o),
(417,697,o),
(460,624,o),
(460,580,qs),
(460,220,ls),
(460,176,o),
(417,103,o),
(344,60,o),
(300,60,qs),
(256,60,o),
(183,103,o),
(140,176,o),
(140,220,qs)
);
}
);
width = 600;
}
);
note = Q;
unicode = (81,113);
},
{
glyphname = R;
lastChange = "2025-10-03 15:21:42 +0000";
layers = (
{
layerId = m01;
shapes = (
{
closed = 1;
nodes = (
(140,0,l),
(140,31,o),
(140,62,o),
(140,94,qs),
(140,169,o),
(140,243,o),
(140,320,q),
(300,320,ls),
(344,320,o),
(417,277,o),
(460,204,o),
(460,160,qs),
(460,0,l),
(540,0,l),
(540,160,ls),
(540,222,o),
(482,328,o),
(432,361,q),
(482,394,o),
(540,499,o),
(540,560,qs),
(540,625,o),
(476,736,o),
(365,800,o),
(300,800,qs),
(60,800,l),
(60,536,o),
(60,272,o),
(60,0,q)
);
},
{
closed = 1;
nodes = (
(140,400,l),
(140,482,o),
(140,563,o),
(140,647,qs),
(140,720,l),
(300,720,ls),
(344,720,o),
(417,677,o),
(460,604,o),
(460,560,qs),
(460,516,o),
(417,443,o),
(344,400,o),
(300,400,qs)
);
}
);
width = 600;
},
{
layerId = "24904F53-3A70-4935-90A9-E5F7B2CEF4ED";
shapes = (
{
closed = 1;
nodes = (
(130,0,l),
(133,27,o),
(136,53,o),
(139,81,qs),
(148,160,o),
(155,267,o),
(150,320,q),
(300,320,ls),
(344,320,o),
(422,277,o),
(465,203,o),
(460,160,qs),
(440,0,l),
(520,0,l),
(540,160,ls),
(547,219,o),
(485,326,o),
(432,361,q),
(482,394,o),
(540,499,o),
(540,560,qs),
(540,625,o),
(476,736,o),
(365,800,o),
(300,800,qs),
(39,800,l),
(76,603,o),
(80,203,o),
(50,0,q)
);
},
{
closed = 1;
nodes = (
(160,400,l),
(165,453,o),
(158,560,o),
(149,639,qs),
(140,720,l),
(300,720,ls),
(344,720,o),
(417,677,o),
(460,604,o),
(460,560,qs),
(460,516,o),
(417,443,o),
(344,400,o),
(300,400,qs)
);
}
);
width = 600;
},
{
layerId = "122BFFFD-FA2E-4F8F-B493-3A50D9628590";
shapes = (
{
closed = 1;
nodes = (
(120,0,l),
(122,27,o),
(130,80,o),
(134,107,qs),
(145,175,o),
(155,272,o),
(150,320,q),
(300,320,ls),
(344,320,o),
(417,277,o),
(455,204,o),
(450,160,qs),
(430,0,l),
(510,0,l),
(530,160,ls),
(537,220,o),
(483,328,o),
(432,361,q),
(480,393,o),
(530,497,o),
(530,560,qs),
(530,627,o),
(470,752,o),
(364,830,o),
(300,830,qs),
(39,830,l),
(77,591,o),
(77,207,o),
(40,0,q)
);
},
{
closed = 1;
nodes = (
(160,400,l),
(165,457,o),
(157,588,o),
(147,681,qs),
(140,750,l),
(300,750,ls),
(343,750,o),
(411,694,o),
(450,605,o),
(450,560,qs),
(450,516,o),
(412,443,o),
(344,400,o),
(300,400,qs)
);
}
);
width = 600;
}
);
note = R;
unicode = (82,114);
},
{
glyphname = S;
lastChange = "2025-10-03 15:21:42 +0000";
layers = (
{
layerId = m01;
shapes = (
{
closed = 1;
nodes = (
(60,200,l),
(60,140,o),
(119,39,o),
(220,-20,o),
(280,-20,qs),
(320,-20,ls),
(380,-20,o),
(481,39,o),
(540,140,o),
(540,200,qs),
(540,220,ls),
(540,280,o),
(481,381,o),
(380,440,o),
(320,440,qs),
(280,440,ls),
(242,440,o),
(177,477,o),
(140,541,o),
(140,580,qs),
(140,600,ls),
(140,638,o),
(177,703,o),
(241,740,o),
(280,740,qs),
(320,740,ls),
(359,740,o),
(423,703,o),
(460,638,o),
(460,600,q),
(540,600,l),
(540,660,o),
(481,761,o),
(380,820,o),
(320,820,qs),
(280,820,ls),
(220,820,o),
(119,761,o),
(60,660,o),
(60,600,qs),
(60,580,ls),
(60,520,o),
(119,419,o),
(220,360,o),
(280,360,qs),
(320,360,ls),
(359,360,o),
(423,323,o),
(460,258,o),
(460,220,qs),
(460,200,ls),
(460,162,o),
(423,97,o),
(359,60,o),
(320,60,qs),
(280,60,ls),
(241,60,o),
(177,97,o),
(140,162,o),
(140,200,q)
);
}
);
width = 600;
},
{
layerId = "24904F53-3A70-4935-90A9-E5F7B2CEF4ED";
shapes = (
{
closed = 1;
nodes = (
(90,200,l),
(90,138,o),
(135,38,o),
(221,-20,o),
(280,-20,qs),
(320,-20,ls),
(381,-20,o),
(497,40,o),
(570,141,o),
(570,200,qs),
(570,220,ls),
(570,279,o),
(497,380,o),
(381,440,o),
(320,440,qs),
(280,440,ls),
(242,440,o),
(193,476,o),
(170,539,o),
(170,580,qs),
(170,600,ls),
(170,641,o),
(193,704,o),
(242,740,o),
(280,740,qs),
(320,740,ls),
(358,740,o),
(407,704,o),
(430,641,o),
(430,600,q),
(510,600,l),
(510,662,o),
(465,762,o),
(379,820,o),
(320,820,qs),
(280,820,ls),
(221,820,o),
(135,762,o),
(90,662,o),
(90,600,qs),
(90,580,ls),
(90,518,o),
(135,418,o),
(221,360,o),
(280,360,qs),
(320,360,ls),
(360,360,o),
(439,322,o),
(490,257,o),
(490,220,qs),
(490,200,ls),
(490,163,o),
(439,98,o),
(360,60,o),
(320,60,qs),
(280,60,ls),
(242,60,o),
(193,96,o),
(170,159,o),
(170,200,q)
);
}
);
width = 600;
},
{
layerId = "122BFFFD-FA2E-4F8F-B493-3A50D9628590";
shapes = (
{
closed = 1;
nodes = (
(110,200,l),
(110,136,o),
(145,37,o),
(221,-20,o),
(280,-20,qs),
(320,-20,ls),
(381,-20,o),
(497,40,o),
(570,141,o),
(570,200,qs),
(570,220,ls),
(570,279,o),
(497,380,o),
(381,440,o),
(320,440,qs),
(280,440,ls),
(242,440,o),
(193,476,o),
(170,539,o),
(170,580,qs),
(170,600,ls),
(170,642,o),
(193,720,o),
(243,770,o),
(280,770,qs),
(320,770,ls),
(357,770,o),
(412,719,o),
(440,641,o),
(440,600,q),
(520,600,l),
(520,662,o),
(470,778,o),
(378,850,o),
(320,850,qs),
(280,850,ls),
(222,850,o),
(135,778,o),
(90,663,o),
(90,600,qs),
(90,580,ls),
(90,518,o),
(135,418,o),
(221,360,o),
(280,360,qs),
(320,360,ls),
(360,360,o),
(439,322,o),
(490,257,o),
(490,220,qs),
(490,200,ls),
(490,163,o),
(439,98,o),
(360,60,o),
(320,60,qs),
(280,60,ls),
(242,60,o),
(203,96,o),
(190,155,o),
(190,200,q)
);
}
);
width = 600;
}
);
note = S;
unicode = (83,115);
},
{
glyphname = T;
lastChange = "2025-10-03 15:21:42 +0000";
layers = (
{
layerId = m01;
shapes = (
{
closed = 1;
nodes = (
(220,720,l),
(220,482,o),
(220,245,o),
(220,0,q),
(300,0,l),
(300,238,o),
(300,475,o),
(300,720,q),
(460,720,l),
(460,800,l),
(60,800,l),
(60,720,l)
);
}
);
width = 520;
},
{
layerId = "24904F53-3A70-4935-90A9-E5F7B2CEF4ED";
shapes = (
{
closed = 1;
nodes = (
(220,720,l),
(250,540,o),
(250,180,o),
(220,0,q),
(300,0,l),
(330,180,o),
(330,540,o),
(300,720,q),
(460,720,l),
(460,800,l),
(60,800,l),
(60,720,l)
);
}
);
width = 520;
},
{
layerId = "122BFFFD-FA2E-4F8F-B493-3A50D9628590";
shapes = (
{
closed = 1;
nodes = (
(220,750,l),
(265,570,o),
(265,180,o),
(220,0,q),
(300,0,l),
(345,180,o),
(345,570,o),
(300,750,q),
(460,750,l),
(460,830,l),
(60,830,l),
(60,750,l)
);
}
);
width = 520;
}
);
note = T;
unicode = (84,116);
},
{
glyphname = U;
lastChange = "2025-10-03 15:21:42 +0000";
layers = (
{
layerId = m01;
shapes = (
{
closed = 1;
nodes = (
(60,800,l),
(60,609,o),
(60,417,o),
(60,220,qs),
(60,155,o),
(124,44,o),
(235,-20,o),
(300,-20,qs),
(365,-20,o),
(476,44,o),
(540,155,o),
(540,220,qs),
(540,411,o),
(540,603,o),
(540,800,q),
(460,800,l),
(460,609,o),
(460,417,o),
(460,220,qs),
(460,176,o),
(417,103,o),
(344,60,o),
(300,60,qs),
(256,60,o),
(183,103,o),
(140,176,o),
(140,220,qs),
(140,411,o),
(140,603,o),
(140,800,q)
);
}
);
width = 600;
},
{
layerId = "24904F53-3A70-4935-90A9-E5F7B2CEF4ED";
shapes = (
{
closed = 1;
nodes = (
(60,800,l),
(90,655,o),
(90,365,o),
(60,220,qs),
(47,158,o),
(112,47,o),
(234,-20,o),
(300,-20,qs),
(364,-20,o),
(463,44,o),
(526,152,o),
(540,220,qs),
(570,365,o),
(570,655,o),
(540,800,q),
(460,800,l),
(490,655,o),
(490,365,o),
(460,220,qs),
(451,175,o),
(409,103,o),
(343,60,o),
(300,60,qs),
(256,60,o),
(174,104,o),
(131,178,o),
(140,220,qs),
(170,365,o),
(170,655,o),
(140,800,q)
);
}
);
width = 600;
},
{
layerId = "122BFFFD-FA2E-4F8F-B493-3A50D9628590";
shapes = (
{
closed = 1;
nodes = (
(30,852,l),
(80,666,o),
(102,355,o),
(60,220,qs),
(41,159,o),
(106,48,o),
(233,-20,o),
(300,-20,qs),
(363,-20,o),
(456,44,o),
(518,150,o),
(540,220,qs),
(582,355,o),
(558,664,o),
(508,852,q),
(428,852,l),
(478,664,o),
(502,355,o),
(460,220,qs),
(446,173,o),
(405,103,o),
(342,60,o),
(300,60,qs),
(255,60,o),
(171,105,o),
(128,179,o),
(140,220,qs),
(182,355,o),
(160,666,o),
(110,852,q)
);
}
);
width = 600;
}
);
note = U;
unicode = (85,117);
},
{
glyphname = V;
lastChange = "2025-10-03 15:21:42 +0000";
layers = (
{
layerId = m01;
shapes = (
{
closed = 1;
nodes = (
(80,800,l),
(80,582,o),
(80,364,o),
(80,140,qs),
(80,97,o),
(123,23,o),
(196,-20,o),
(240,-20,qs),
(283,-20,o),
(357,23,o),
(400,97,o),
(400,140,qs),
(400,358,o),
(400,576,o),
(400,800,q),
(320,800,l),
(320,582,o),
(320,364,o),
(320,140,q),
(322,107,o),
(274,60,o),
(240,60,qs),
(218,60,o),
(182,82,o),
(160,118,o),
(160,140,qs),
(160,358,o),
(160,576,o),
(160,800,q)
);
}
);
width = 480;
},
{
layerId = "24904F53-3A70-4935-90A9-E5F7B2CEF4ED";
shapes = (
{
closed = 1;
nodes = (
(80,800,l),
(103,635,o),
(103,305,o),
(80,140,qs),
(74,97,o),
(117,24,o),
(196,-20,o),
(240,-20,qs),
(283,-20,o),
(351,23,o),
(394,95,o),
(400,140,qs),
(423,305,o),
(423,635,o),
(400,800,q),
(320,800,l),
(343,635,o),
(343,305,o),
(320,140,q),
(322,107,o),
(274,60,o),
(240,60,qs),
(218,60,o),
(179,82,o),
(157,119,o),
(160,140,qs),
(183,305,o),
(183,635,o),
(160,800,q)
);
}
);
width = 480;
},
{
layerId = "122BFFFD-FA2E-4F8F-B493-3A50D9628590";
shapes = (
{
closed = 1;
nodes = (
(70,830,l),
(109,659,o),
(116,300,o),
(80,140,qs),
(70,99,o),
(114,25,o),
(196,-20,o),
(240,-20,qs),
(282,-20,o),
(347,23,o),
(390,95,o),
(400,140,qs),
(436,300,o),
(429,659,o),
(390,830,q),
(310,830,l),
(349,659,o),
(356,300,o),
(320,140,q),
(322,107,o),
(274,60,o),
(240,60,qs),
(218,60,o),
(177,82,o),
(155,119,o),
(160,140,qs),
(196,300,o),
(189,659,o),
(150,830,q)
);
}
);
width = 480;
}
);
note = V;
unicode = (86,118);
},
{
glyphname = W;
lastChange = "2025-10-03 15:21:42 +0000";
layers = (
{
layerId = m01;
shapes = (
{
closed = 1;
nodes = (
(60,800,l),
(60,582,o),
(60,364,o),
(60,140,qs),
(60,97,o),
(103,23,o),
(176,-20,o),
(220,-20,qs),
(255,-20,o),
(317,9,o),
(340,34,q),
(362,9,o),
(425,-20,o),
(460,-20,qs),
(503,-20,o),
(577,23,o),
(620,97,o),
(620,140,qs),
(620,358,o),
(620,576,o),
(620,800,q),
(540,800,l),
(540,582,o),
(540,364,o),
(540,140,qs),
(540,107,o),
(493,60,o),
(460,60,qs),
(438,60,o),
(402,82,o),
(380,118,o),
(380,140,qs),
(380,358,o),
(380,576,o),
(380,800,q),
(300,800,l),
(300,582,o),
(300,363,o),
(300,138,qs),
(300,106,o),
(252,60,o),
(220,60,qs),
(198,60,o),
(162,82,o),
(140,118,o),
(140,140,qs),
(140,358,o),
(140,576,o),
(140,800,q)
);
}
);
width = 680;
},
{
layerId = "24904F53-3A70-4935-90A9-E5F7B2CEF4ED";
shapes = (
{
closed = 1;
nodes = (
(60,800,l),
(83,635,o),
(83,305,o),
(60,140,qs),
(54,97,o),
(97,24,o),
(176,-20,o),
(220,-20,qs),
(255,-20,o),
(317,9,o),
(340,34,q),
(362,9,o),
(425,-20,o),
(460,-20,qs),
(503,-20,o),
(571,23,o),
(614,95,o),
(620,140,qs),
(643,305,o),
(643,635,o),
(620,800,q),
(540,800,l),
(563,635,o),
(563,305,o),
(540,140,qs),
(535,106,o),
(492,60,o),
(460,60,qs),
(438,60,o),
(399,82,o),
(377,119,o),
(380,140,qs),
(403,305,o),
(403,635,o),
(380,800,q),
(300,800,l),
(323,634,o),
(323,304,o),
(300,138,qs),
(295,105,o),
(251,60,o),
(220,60,qs),
(198,60,o),
(159,82,o),
(137,119,o),
(140,140,qs),
(163,305,o),
(163,635,o),
(140,800,q)
);
}
);
width = 680;
},
{
layerId = "122BFFFD-FA2E-4F8F-B493-3A50D9628590";
shapes = (
{
closed = 1;
nodes = (
(50,830,l),
(89,659,o),
(96,300,o),
(60,140,qs),
(50,99,o),
(94,25,o),
(176,-20,o),
(220,-20,qs),
(255,-20,o),
(317,9,o),
(340,34,q),
(362,9,o),
(425,-20,o),
(460,-20,qs),
(502,-20,o),
(567,23,o),
(610,95,o),
(620,140,qs),
(656,300,o),
(649,659,o),
(610,830,q),
(530,830,l),
(569,659,o),
(576,300,o),
(540,140,qs),
(532,104,o),
(491,60,o),
(460,60,qs),
(438,60,o),
(397,82,o),
(375,119,o),
(380,140,qs),
(416,300,o),
(409,659,o),
(370,830,q),
(290,830,l),
(329,659,o),
(336,299,o),
(300,138,qs),
(292,104,o),
(251,60,o),
(220,60,qs),
(198,60,o),
(157,82,o),
(135,119,o),
(140,140,qs),
(176,300,o),
(169,659,o),
(130,830,q)
);
}
);
width = 680;
}
);
note = W;
unicode = (87,119);
},
{
glyphname = X;
lastChange = "2025-10-03 15:21:42 +0000";
layers = (
{
layerId = m01;
shapes = (
{
closed = 1;
nodes = (
(60,0,l),
(140,0,l),
(140,200,ls),
(140,215,o),
(146,244,o),
(151,258,qs),
(162,288,o),
(207,334,o),
(267,360,o),
(300,360,qs),
(344,360,o),
(417,317,o),
(460,244,o),
(460,200,qs),
(460,0,l),
(540,0,l),
(540,200,ls),
(540,241,o),
(515,315,o),
(468,376,o),
(436,398,qs),
(433,400,l),
(483,433,o),
(540,538,o),
(540,600,qs),
(540,800,l),
(460,800,l),
(460,600,ls),
(460,556,o),
(417,483,o),
(344,440,o),
(300,440,qs),
(262,440,o),
(195,473,o),
(150,531,o),
(143,567,qs),
(142,575,o),
(140,592,o),
(140,600,qs),
(140,800,l),
(60,800,l),
(60,600,ls),
(60,578,o),
(65,551,qs),
(75,504,o),
(128,426,o),
(167,400,q),
(134,378,o),
(86,316,o),
(73,279,qs),
(60,238,o),
(60,200,qs)
);
}
);
width = 600;
},
{
layerId = "24904F53-3A70-4935-90A9-E5F7B2CEF4ED";
shapes = (
{
closed = 1;
nodes = (
(60,0,l),
(140,0,l),
(170,200,ls),
(172,215,o),
(178,244,o),
(182,258,qs),
(191,290,o),
(221,335,o),
(267,360,o),
(300,360,qs),
(345,360,o),
(439,316,o),
(496,242,o),
(490,200,qs),
(460,0,l),
(540,0,l),
(570,200,ls),
(576,238,o),
(538,312,o),
(474,373,o),
(436,398,qs),
(433,400,l),
(495,441,o),
(579,544,o),
(570,600,qs),
(540,800,l),
(460,800,l),
(490,600,ls),
(496,558,o),
(439,484,o),
(345,440,o),
(300,440,qs),
(263,440,o),
(213,472,o),
(184,528,o),
(176,568,qs),
(174,576,o),
(171,592,o),
(170,600,qs),
(140,800,l),
(60,800,l),
(90,600,ls),
(94,573,o),
(95,562,qs),
(104,497,o),
(130,424,o),
(167,400,q),
(130,376,o),
(104,303,o),
(95,238,qs),
(94,227,o),
(90,200,qs)
);
}
);
width = 600;
},
{
layerId = "122BFFFD-FA2E-4F8F-B493-3A50D9628590";
shapes = (
{
closed = 1;
nodes = (
(40,0,l),
(120,0,l),
(190,200,ls),
(195,214,o),
(202,243,o),
(206,256,qs),
(216,294,o),
(232,334,o),
(268,360,o),
(300,360,qs),
(346,360,o),
(457,313,o),
(524,239,o),
(510,200,qs),
(440,0,l),
(520,0,l),
(590,200,ls),
(603,236,o),
(557,309,o),
(485,365,o),
(436,398,qs),
(433,400,l),
(507,449,o),
(602,547,o),
(590,600,qs),
(540,830,l),
(460,830,l),
(510,600,ls),
(519,560,o),
(453,486,o),
(346,440,o),
(300,440,qs),
(263,440,o),
(223,472,o),
(206,522,o),
(197,568,qs),
(195,579,o),
(192,589,o),
(190,600,qs),
(140,830,l),
(60,830,l),
(110,600,ls),
(116,570,o),
(121,540,qs),
(131,479,o),
(150,411,o),
(167,400,q),
(163,390,o),
(149,341,o),
(142,314,qs),
(124,239,o),
(110,200,qs)
);
}
);
width = 600;
}
);
note = X;
unicode = (88,120);
},
{
glyphname = Y;
lastChange = "2025-10-03 15:21:42 +0000";
layers = (
{
layerId = m01;
shapes = (
{
closed = 1;
nodes = (
(60,580,ls),
(60,521,o),
(112,420,o),
(204,352,o),
(260,343,q),
(260,257,o),
(260,172,o),
(260,86,o),
(260,0,q),
(340,0,l),
(340,86,o),
(340,172,o),
(340,257,o),
(340,343,q),
(397,352,o),
(488,420,o),
(540,521,o),
(540,580,qs),
(540,800,l),
(460,800,l),
(460,580,ls),
(460,536,o),
(417,463,o),
(344,420,o),
(300,420,qs),
(256,420,o),
(183,463,o),
(140,537,o),
(140,580,qs),
(140,800,l),
(60,800,l)
);
}
);
width = 600;
},
{
layerId = "24904F53-3A70-4935-90A9-E5F7B2CEF4ED";
shapes = (
{
closed = 1;
nodes = (
(60,580,ls),
(68,520,o),
(120,419,o),
(205,352,o),
(260,343,q),
(275,286,o),
(285,172,o),
(275,57,o),
(260,0,q),
(340,0,l),
(355,57,o),
(365,171,o),
(355,286,o),
(340,343,q),
(397,353,o),
(495,421,o),
(548,523,o),
(540,580,qs),
(510,800,l),
(430,800,l),
(460,580,ls),
(466,537,o),
(423,463,o),
(344,420,o),
(300,420,qs),
(257,420,o),
(189,463,o),
(146,535,o),
(140,580,qs),
(110,800,l),
(30,800,l)
);
}
);
width = 600;
},
{
layerId = "122BFFFD-FA2E-4F8F-B493-3A50D9628590";
shapes = (
{
closed = 1;
nodes = (
(60,580,ls),
(78,517,o),
(128,419,o),
(206,352,o),
(260,343,q),
(274,290,o),
(271,178,o),
(250,76,o),
(230,0,q),
(310,0,l),
(330,76,o),
(351,178,o),
(354,290,o),
(340,343,q),
(398,353,o),
(503,424,o),
(555,526,o),
(540,580,qs),
(470,830,l),
(390,830,l),
(460,580,ls),
(471,539,o),
(428,465,o),
(345,420,o),
(300,420,qs),
(258,420,o),
(194,463,o),
(153,534,o),
(140,580,qs),
(70,830,l),
(-10,830,l)
);
}
);
width = 600;
}
);
note = Y;
unicode = (89,121);
},
{
glyphname = Z;
lastChange = "2025-10-03 15:21:42 +0000";
layers = (
{
layerId = m01;
shapes = (
{
closed = 1;
nodes = (
(60,160,o),
(119,59,o),
(220,0,o),
(280,0,qs),
(540,0,l),
(540,80,l),
(280,80,ls),
(242,80,o),
(177,117,o),
(140,182,o),
(140,220,qs),
(140,258,o),
(177,323,o),
(242,360,o),
(280,360,qs),
(320,360,ls),
(380,360,o),
(481,419,o),
(540,520,o),
(540,580,qs),
(540,640,o),
(481,741,o),
(380,800,o),
(320,800,qs),
(60,800,l),
(60,720,l),
(320,720,ls),
(358,720,o),
(423,683,o),
(460,618,o),
(460,580,qs),
(460,542,o),
(423,477,o),
(358,440,o),
(320,440,qs),
(280,440,ls),
(220,440,o),
(119,381,o),
(60,280,o),
(60,220,qs)
);
}
);
width = 600;
},
{
layerId = "24904F53-3A70-4935-90A9-E5F7B2CEF4ED";
shapes = (
{
closed = 1;
nodes = (
(30,161,o),
(103,60,o),
(219,0,o),
(280,0,qs),
(540,0,l),
(540,80,l),
(280,80,ls),
(241,80,o),
(161,118,o),
(110,183,o),
(110,220,qs),
(110,257,o),
(161,322,o),
(241,360,o),
(280,360,qs),
(320,360,ls),
(381,360,o),
(497,420,o),
(570,521,o),
(570,580,qs),
(570,639,o),
(497,740,o),
(381,800,o),
(320,800,qs),
(60,800,l),
(60,720,l),
(320,720,ls),
(359,720,o),
(439,682,o),
(490,617,o),
(490,580,qs),
(490,543,o),
(439,478,o),
(359,440,o),
(320,440,qs),
(280,440,ls),
(219,440,o),
(103,380,o),
(30,279,o),
(30,220,qs)
);
}
);
width = 600;
},
{
layerId = "122BFFFD-FA2E-4F8F-B493-3A50D9628590";
shapes = (
{
closed = 1;
nodes = (
(30,161,o),
(103,60,o),
(219,0,o),
(280,0,qs),
(540,0,l),
(540,80,l),
(280,80,ls),
(241,80,o),
(161,118,o),
(110,183,o),
(110,220,qs),
(110,249,o),
(162,305,o),
(242,341,o),
(280,341,qs),
(320,341,ls),
(380,341,o),
(496,410,o),
(570,521,o),
(570,580,qs),
(570,640,o),
(496,760,o),
(379,834,o),
(320,830,qs),
(60,810,l),
(60,730,l),
(320,750,ls),
(358,753,o),
(437,701,o),
(490,618,o),
(490,580,qs),
(490,534,o),
(439,461,o),
(360,421,o),
(320,421,qs),
(280,421,ls),
(218,421,o),
(102,370,o),
(30,279,o),
(30,220,qs)
);
}
);
width = 600;
}
);
note = Z;
unicode = (90,122);
},
{
glyphname = zero;
layers = (
{
layerId = m01;
shapes = (
{
closed = 1;
nodes = (
(60,220,ls),
(60,155,o),
(124,44,o),
(235,-20,o),
(300,-20,qs),
(365,-20,o),
(476,44,o),
(540,155,o),
(540,220,qs),
(540,580,ls),
(540,645,o),
(476,756,o),
(365,820,o),
(300,820,qs),
(235,820,o),
(124,756,o),
(60,645,o),
(60,580,qs)
);
},
{
closed = 1;
nodes = (
(140,580,ls),
(140,624,o),
(183,697,o),
(256,740,o),
(300,740,qs),
(344,740,o),
(417,697,o),
(460,624,o),
(460,580,qs),
(460,220,ls),
(460,176,o),
(417,103,o),
(344,60,o),
(300,60,qs),
(256,60,o),
(183,103,o),
(140,176,o),
(140,220,qs)
);
}
);
width = 600;
},
{
layerId = "24904F53-3A70-4935-90A9-E5F7B2CEF4ED";
shapes = (
{
closed = 1;
nodes = (
(90,220,ls),
(90,153,o),
(140,44,o),
(235,-20,o),
(300,-20,qs),
(366,-20,o),
(492,45,o),
(570,156,o),
(570,220,qs),
(570,580,ls),
(570,644,o),
(492,755,o),
(366,820,o),
(300,820,qs),
(235,820,o),
(140,756,o),
(90,647,o),
(90,580,qs)
);
},
{
closed = 1;
nodes = (
(170,580,ls),
(170,626,o),
(199,698,o),
(257,740,o),
(300,740,qs),
(345,740,o),
(433,697,o),
(490,623,o),
(490,580,qs),
(490,220,ls),
(490,177,o),
(433,103,o),
(345,60,o),
(300,60,qs),
(257,60,o),
(199,102,o),
(170,174,o),
(170,220,qs)
);
}
);
width = 600;
},
{
layerId = "122BFFFD-FA2E-4F8F-B493-3A50D9628590";
shapes = (
{
closed = 1;
nodes = (
(110,220,ls),
(110,151,o),
(151,43,o),
(236,-20,o),
(300,-20,qs),
(367,-20,o),
(502,46,o),
(590,156,o),
(590,220,qs),
(590,580,ls),
(590,645,o),
(500,791,o),
(364,890,o),
(300,890,qs),
(238,890,o),
(152,795,o),
(110,652,o),
(110,580,qs)
);
},
{
closed = 1;
nodes = (
(190,580,ls),
(190,633,o),
(210,737,o),
(259,810,o),
(300,810,qs),
(343,810,o),
(442,733,o),
(510,624,o),
(510,580,qs),
(510,220,ls),
(510,178,o),
(444,104,o),
(345,60,o),
(300,60,qs),
(258,60,o),
(209,101,o),
(190,171,o),
(190,220,qs)
);
}
);
width = 600;
}
);
note = zero;
unicode = 48;
},
{
glyphname = one;
layers = (
{
layerId = m01;
shapes = (
{
closed = 1;
nodes = (
(60,720,l),
(104,720,o),
(177,677,o),
(220,604,o),
(220,560,qs),
(220,0,l),
(300,0,l),
(300,560,ls),
(300,625,o),
(236,736,o),
(125,800,o),
(60,800,q)
);
}
);
width = 360;
},
{
layerId = "24904F53-3A70-4935-90A9-E5F7B2CEF4ED";
shapes = (
{
closed = 1;
nodes = (
(60,720,l),
(104,720,o),
(177,677,o),
(220,604,o),
(220,560,qs),
(220,0,l),
(300,0,l),
(300,560,ls),
(300,625,o),
(236,736,o),
(125,800,o),
(60,800,q)
);
}
);
width = 360;
},
{
layerId = "122BFFFD-FA2E-4F8F-B493-3A50D9628590";
shapes = (
{
closed = 1;
nodes = (
(60,720,l),
(104,720,o),
(177,677,o),
(220,604,o),
(220,560,qs),
(220,0,l),
(300,0,l),
(300,560,ls),
(300,625,o),
(236,736,o),
(125,800,o),
(60,800,q)
);
}
);
width = 360;
}
);
note = one;
unicode = 49;
},
{
glyphname = two;
layers = (
{
layerId = m01;
shapes = (
{
closed = 1;
nodes = (
(60,160,o),
(119,59,o),
(220,0,o),
(280,0,qs),
(540,0,l),
(540,80,l),
(280,80,ls),
(242,80,o),
(177,117,o),
(140,182,o),
(140,220,qs),
(140,258,o),
(177,323,o),
(242,360,o),
(280,360,qs),
(320,360,ls),
(380,360,o),
(481,419,o),
(540,520,o),
(540,580,qs),
(540,640,o),
(481,741,o),
(380,800,o),
(320,800,qs),
(60,800,l),
(60,720,l),
(320,720,ls),
(358,720,o),
(423,683,o),
(460,618,o),
(460,580,qs),
(460,542,o),
(423,477,o),
(358,440,o),
(320,440,qs),
(280,440,ls),
(220,440,o),
(119,381,o),
(60,280,o),
(60,220,qs)
);
}
);
width = 600;
},
{
layerId = "24904F53-3A70-4935-90A9-E5F7B2CEF4ED";
shapes = (
{
closed = 1;
nodes = (
(30,161,o),
(103,60,o),
(219,0,o),
(280,0,qs),
(540,0,l),
(540,80,l),
(280,80,ls),
(241,80,o),
(161,118,o),
(110,183,o),
(110,220,qs),
(110,257,o),
(161,322,o),
(241,360,o),
(280,360,qs),
(320,360,ls),
(381,360,o),
(497,420,o),
(570,521,o),
(570,580,qs),
(570,639,o),
(497,740,o),
(381,800,o),
(320,800,qs),
(60,800,l),
(60,720,l),
(320,720,ls),
(359,720,o),
(439,682,o),
(490,617,o),
(490,580,qs),
(490,543,o),
(439,478,o),
(359,440,o),
(320,440,qs),
(280,440,ls),
(219,440,o),
(103,380,o),
(30,279,o),
(30,220,qs)
);
}
);
width = 600;
},
{
layerId = "122BFFFD-FA2E-4F8F-B493-3A50D9628590";
shapes = (
{
closed = 1;
nodes = (
(30,161,o),
(103,60,o),
(219,0,o),
(280,0,qs),
(540,0,l),
(540,80,l),
(280,80,ls),
(241,80,o),
(161,118,o),
(110,183,o),
(110,220,qs),
(110,257,o),
(161,322,o),
(241,360,o),
(280,360,qs),
(320,360,ls),
(381,360,o),
(497,420,o),
(570,521,o),
(570,580,qs),
(570,641,o),
(495,770,o),
(378,849,o),
(320,840,qs),
(60,800,l),
(60,720,l),
(320,760,ls),
(357,766,o),
(437,709,o),
(490,619,o),
(490,580,qs),
(490,543,o),
(439,478,o),
(359,440,o),
(320,440,qs),
(280,440,ls),
(219,440,o),
(103,380,o),
(30,279,o),
(30,220,qs)
);
}
);
width = 600;
}
);
note = two;
unicode = 50;
},
{
glyphname = three;
layers = (
{
layerId = m01;
shapes = (
{
closed = 1;
nodes = (
(280,0,ls),
(340,0,o),
(441,59,o),
(500,160,o),
(500,220,qs),
(500,275,o),
(450,369,o),
(407,400,q),
(413,404,ls),
(454,435,o),
(500,527,o),
(500,580,qs),
(500,640,o),
(441,741,o),
(340,800,o),
(280,800,qs),
(60,800,l),
(60,720,l),
(280,720,ls),
(318,720,o),
(383,683,o),
(420,618,o),
(420,580,qs),
(420,550,o),
(397,498,o),
(356,459,o),
(330,449,qs),
(306,440,o),
(280,440,qs),
(200,440,l),
(200,360,l),
(280,360,ls),
(318,360,o),
(383,323,o),
(420,258,o),
(420,220,qs),
(420,182,o),
(383,117,o),
(318,80,o),
(280,80,qs),
(60,80,l),
(60,0,l)
);
}
);
width = 560;
},
{
layerId = "24904F53-3A70-4935-90A9-E5F7B2CEF4ED";
shapes = (
{
closed = 1;
nodes = (
(280,0,ls),
(341,0,o),
(457,60,o),
(530,161,o),
(530,220,qs),
(530,271,o),
(458,363,o),
(407,400,q),
(413,404,ls),
(463,441,o),
(530,531,o),
(530,580,qs),
(530,639,o),
(457,740,o),
(341,800,o),
(280,800,qs),
(60,800,l),
(60,720,l),
(280,720,ls),
(319,720,o),
(399,682,o),
(450,617,o),
(450,580,qs),
(450,551,o),
(418,499,o),
(365,459,o),
(334,449,qs),
(307,440,o),
(280,440,qs),
(200,440,l),
(200,360,l),
(280,360,ls),
(319,360,o),
(399,322,o),
(450,257,o),
(450,220,qs),
(450,183,o),
(399,118,o),
(319,80,o),
(280,80,qs),
(60,80,l),
(60,0,l)
);
}
);
width = 560;
},
{
layerId = "122BFFFD-FA2E-4F8F-B493-3A50D9628590";
shapes = (
{
closed = 1;
nodes = (
(280,30,ls),
(347,39,o),
(459,84,o),
(530,163,o),
(530,220,qs),
(530,272,o),
(454,386,o),
(407,420,q),
(413,424,ls),
(469,464,o),
(530,532,o),
(530,580,qs),
(530,640,o),
(454,766,o),
(337,841,o),
(280,830,qs),
(60,790,l),
(60,710,l),
(280,750,ls),
(317,757,o),
(397,704,o),
(450,619,o),
(450,580,qs),
(450,552,o),
(418,517,o),
(371,497,o),
(331,486,qs),
(292,475,o),
(280,470,qs),
(200,440,l),
(200,360,l),
(280,380,ls),
(313,388,o),
(394,340,o),
(450,258,o),
(450,220,qs),
(450,184,o),
(401,139,o),
(328,117,o),
(280,110,qs),
(60,80,l),
(60,0,l)
);
}
);
width = 560;
}
);
note = three;
unicode = 51;
},
{
glyphname = four;
layers = (
{
layerId = m01;
shapes = (
{
closed = 1;
nodes = (
(30,190,l),
(383,190,l),
(383,0,l),
(463,0,l),
(463,190,l),
(578,190,l),
(578,270,l),
(463,270,l),
(463,445,o),
(463,620,o),
(463,800,q),
(383,800,ls),
(344,800,o),
(283,779,o),
(271,755,qs),
(232,676,o),
(192,596,qs),
(152,515,o),
(111,433,o),
(71,352,o),
(30,270,q)
);
},
{
closed = 1;
nodes = (
(110,270,l),
(146,342,o),
(183,413,o),
(219,485,o),
(255,556,qs),
(279,603,o),
(303,649,o),
(327,697,qs),
(333,708,o),
(365,720,o),
(383,720,q),
(383,572,o),
(383,423,o),
(383,270,q)
);
}
);
width = 608;
},
{
layerId = "24904F53-3A70-4935-90A9-E5F7B2CEF4ED";
shapes = (
{
closed = 1;
nodes = (
(30,190,l),
(383,190,l),
(383,0,l),
(463,0,l),
(463,190,l),
(578,190,l),
(578,270,l),
(463,270,l),
(487,401,o),
(485,663,o),
(463,800,q),
(383,800,ls),
(344,800,o),
(283,779,o),
(271,755,qs),
(243,698,o),
(213,593,qs),
(190,515,o),
(152,415,o),
(84,312,o),
(30,270,q)
);
},
{
closed = 1;
nodes = (
(110,270,l),
(159,302,o),
(222,389,o),
(256,479,o),
(275,548,qs),
(289,601,o),
(311,666,o),
(327,697,qs),
(332,708,o),
(373,720,o),
(393,720,q),
(419,604,o),
(414,379,o),
(383,270,q)
);
}
);
width = 608;
},
{
layerId = "122BFFFD-FA2E-4F8F-B493-3A50D9628590";
shapes = (
{
closed = 1;
nodes = (
(30,190,l),
(383,190,l),
(383,0,l),
(463,0,l),
(463,190,l),
(578,190,l),
(578,270,l),
(463,270,l),
(487,401,o),
(485,693,o),
(463,830,q),
(383,830,ls),
(351,830,o),
(285,783,o),
(271,755,qs),
(243,698,o),
(213,593,qs),
(190,515,o),
(152,415,o),
(84,312,o),
(30,270,q)
);
},
{
closed = 1;
nodes = (
(110,270,l),
(159,302,o),
(222,389,o),
(256,479,o),
(275,548,qs),
(289,601,o),
(311,666,o),
(327,697,qs),
(334,711,o),
(378,750,o),
(393,750,q),
(419,634,o),
(414,378,o),
(383,270,q)
);
}
);
width = 608;
}
);
note = four;
unicode = 52;
},
{
glyphname = five;
layers = (
{
layerId = m01;
shapes = (
{
closed = 1;
nodes = (
(540,280,o),
(481,381,o),
(380,440,o),
(320,440,qs),
(280,440,ls),
(242,440,o),
(177,477,o),
(140,542,o),
(140,580,qs),
(140,618,o),
(177,683,o),
(242,720,o),
(280,720,qs),
(540,720,l),
(540,800,l),
(280,800,ls),
(220,800,o),
(119,741,o),
(60,640,o),
(60,580,qs),
(60,520,o),
(119,419,o),
(220,360,o),
(280,360,qs),
(320,360,ls),
(358,360,o),
(423,323,o),
(460,258,o),
(460,220,qs),
(460,182,o),
(423,117,o),
(358,80,o),
(320,80,qs),
(60,80,l),
(60,0,l),
(320,0,ls),
(380,0,o),
(481,59,o),
(540,160,o),
(540,220,qs)
);
}
);
width = 600;
},
{
layerId = "24904F53-3A70-4935-90A9-E5F7B2CEF4ED";
shapes = (
{
closed = 1;
nodes = (
(570,279,o),
(497,380,o),
(381,440,o),
(320,440,qs),
(280,440,ls),
(241,440,o),
(161,478,o),
(110,543,o),
(110,580,qs),
(110,617,o),
(161,682,o),
(241,720,o),
(280,720,qs),
(540,720,l),
(540,800,l),
(280,800,ls),
(219,800,o),
(103,740,o),
(30,639,o),
(30,580,qs),
(30,521,o),
(103,420,o),
(219,360,o),
(280,360,qs),
(320,360,ls),
(359,360,o),
(439,322,o),
(490,257,o),
(490,220,qs),
(490,183,o),
(439,118,o),
(359,80,o),
(320,80,qs),
(60,80,l),
(60,0,l),
(320,0,ls),
(381,0,o),
(497,60,o),
(570,161,o),
(570,220,qs)
);
}
);
width = 600;
},
{
layerId = "122BFFFD-FA2E-4F8F-B493-3A50D9628590";
shapes = (
{
closed = 1;
nodes = (
(570,279,o),
(497,380,o),
(381,440,o),
(320,440,qs),
(280,440,ls),
(241,440,o),
(161,478,o),
(110,543,o),
(110,580,qs),
(110,619,o),
(163,709,o),
(243,766,o),
(280,760,qs),
(540,720,l),
(540,800,l),
(280,840,ls),
(222,849,o),
(105,770,o),
(30,641,o),
(30,580,qs),
(30,521,o),
(103,420,o),
(219,360,o),
(280,360,qs),
(320,360,ls),
(359,360,o),
(439,322,o),
(490,257,o),
(490,220,qs),
(490,182,o),
(438,112,o),
(358,74,o),
(320,80,qs),
(60,120,l),
(60,40,l),
(320,0,ls),
(379,-9,o),
(496,51,o),
(570,160,o),
(570,220,qs)
);
}
);
width = 600;
}
);
note = five;
unicode = 53;
},
{
glyphname = six;
layers = (
{
layerId = m01;
shapes = (
{
closed = 1;
nodes = (
(60,220,ls),
(60,155,o),
(124,44,o),
(235,-20,o),
(300,-20,qs),
(365,-20,o),
(476,44,o),
(540,155,o),
(540,220,qs),
(540,280,ls),
(540,345,o),
(476,456,o),
(365,520,o),
(300,520,qs),
(256,520,o),
(176,490,o),
(145,463,qs),
(140,459,l),
(140,580,ls),
(140,624,o),
(183,697,o),
(256,740,o),
(300,740,qs),
(344,740,o),
(418,697,o),
(460,624,o),
(460,580,q),
(540,580,l),
(540,645,o),
(476,756,o),
(365,820,o),
(300,820,qs),
(235,820,o),
(124,756,o),
(60,645,o),
(60,580,qs)
);
},
{
closed = 1;
nodes = (
(140,280,ls),
(140,324,o),
(183,397,o),
(256,440,o),
(300,440,qs),
(344,440,o),
(417,397,o),
(460,324,o),
(460,280,qs),
(460,220,ls),
(460,176,o),
(418,103,o),
(344,60,o),
(300,60,qs),
(256,60,o),
(183,103,o),
(140,176,o),
(140,220,qs)
);
}
);
width = 600;
},
{
layerId = "24904F53-3A70-4935-90A9-E5F7B2CEF4ED";
shapes = (
{
closed = 1;
nodes = (
(90,220,ls),
(96,151,o),
(145,43,o),
(236,-20,o),
(300,-20,qs),
(366,-20,o),
(492,45,o),
(570,156,o),
(570,220,qs),
(570,280,ls),
(570,344,o),
(492,455,o),
(366,520,o),
(300,520,qs),
(256,520,o),
(176,490,o),
(145,463,qs),
(140,459,l),
(140,580,ls),
(140,624,o),
(183,697,o),
(256,740,o),
(300,740,qs),
(345,740,o),
(434,696,o),
(490,623,o),
(490,580,q),
(570,580,l),
(570,644,o),
(492,755,o),
(366,820,o),
(300,820,qs),
(234,820,o),
(119,755,o),
(55,645,o),
(60,580,qs)
);
},
{
closed = 1;
nodes = (
(170,280,ls),
(170,326,o),
(199,398,o),
(257,440,o),
(300,440,qs),
(345,440,o),
(433,397,o),
(490,323,o),
(490,280,qs),
(490,220,ls),
(490,177,o),
(433,103,o),
(345,60,o),
(300,60,qs),
(257,60,o),
(199,102,o),
(170,174,o),
(170,220,qs)
);
}
);
width = 600;
},
{
layerId = "122BFFFD-FA2E-4F8F-B493-3A50D9628590";
shapes = (
{
closed = 1;
nodes = (
(90,220,ls),
(96,151,o),
(145,43,o),
(236,-20,o),
(300,-20,qs),
(366,-20,o),
(492,45,o),
(570,156,o),
(570,220,qs),
(570,280,ls),
(570,345,o),
(491,471,o),
(365,550,o),
(300,550,qs),
(260,550,o),
(188,503,o),
(145,463,qs),
(140,459,l),
(140,580,ls),
(140,625,o),
(183,713,o),
(257,770,o),
(300,770,qs),
(343,770,o),
(433,712,o),
(490,623,o),
(490,580,q),
(570,580,l),
(570,645,o),
(491,771,o),
(365,850,o),
(300,850,qs),
(235,850,o),
(120,771,o),
(55,645,o),
(60,580,qs)
);
},
{
closed = 1;
nodes = (
(170,280,ls),
(170,327,o),
(199,414,o),
(258,470,o),
(300,470,qs),
(343,470,o),
(432,412,o),
(490,323,o),
(490,280,qs),
(490,220,ls),
(490,177,o),
(433,103,o),
(345,60,o),
(300,60,qs),
(257,60,o),
(199,102,o),
(170,174,o),
(170,220,qs)
);
}
);
width = 600;
}
);
note = six;
unicode = 54;
},
{
glyphname = seven;
layers = (
{
layerId = m01;
shapes = (
{
closed = 1;
nodes = (
(240,720,ls),
(284,720,o),
(357,677,o),
(400,604,o),
(400,560,qs),
(400,420,o),
(400,280,o),
(400,140,o),
(400,0,q),
(480,0,l),
(480,1,ls),
(480,141,o),
(480,281,o),
(480,420,o),
(480,560,qs),
(480,625,o),
(416,736,o),
(305,800,o),
(240,800,qs),
(60,800,l),
(60,720,l)
);
}
);
width = 540;
},
{
layerId = "24904F53-3A70-4935-90A9-E5F7B2CEF4ED";
shapes = (
{
closed = 1;
nodes = (
(240,720,ls),
(283,720,o),
(351,678,o),
(393,605,o),
(400,560,qs),
(415,466,o),
(425,280,o),
(415,94,o),
(400,0,q),
(480,0,l),
(480,1,ls),
(495,95,o),
(505,280,o),
(495,466,o),
(480,560,qs),
(469,627,o),
(406,736,o),
(304,800,o),
(240,800,qs),
(60,800,l),
(60,720,l)
);
}
);
width = 540;
},
{
layerId = "122BFFFD-FA2E-4F8F-B493-3A50D9628590";
shapes = (
{
closed = 1;
nodes = (
(240,750,ls),
(281,757,o),
(349,701,o),
(392,608,o),
(400,560,qs),
(414,473,o),
(411,290,o),
(390,125,o),
(370,0,q),
(450,0,l),
(450,1,ls),
(470,126,o),
(491,291,o),
(494,473,o),
(480,560,qs),
(469,630,o),
(403,763,o),
(302,840,o),
(240,830,qs),
(60,800,l),
(60,720,l)
);
}
);
width = 540;
}
);
note = seven;
unicode = 55;
},
{
glyphname = eight;
layers = (
{
layerId = m01;
shapes = (
{
closed = 1;
nodes = (
(60,220,ls),
(60,155,o),
(124,44,o),
(235,-20,o),
(300,-20,qs),
(365,-20,o),
(476,44,o),
(540,155,o),
(540,220,qs),
(540,280,ls),
(540,345,o),
(477,454,o),
(424,486,q),
(455,513,o),
(490,588,o),
(490,630,qs),
(490,682,o),
(439,769,o),
(352,820,o),
(300,820,qs),
(248,820,o),
(161,769,o),
(110,682,o),
(110,630,qs),
(110,620,o),
(111,615,q),
(113,577,o),
(148,511,o),
(176,486,q),
(123,454,o),
(60,345,o),
(60,280,qs)
);
},
{
closed = 1;
nodes = (
(190,676,o),
(254,740,o),
(300,740,qs),
(330,740,o),
(381,711,o),
(410,660,o),
(410,630,qs),
(410,600,o),
(381,549,o),
(330,520,o),
(300,520,qs),
(254,520,o),
(190,584,o),
(190,630,qs)
);
},
{
closed = 1;
nodes = (
(140,280,ls),
(140,324,o),
(183,397,o),
(256,440,o),
(300,440,qs),
(344,440,o),
(417,398,o),
(460,324,o),
(460,280,qs),
(460,220,ls),
(460,176,o),
(417,102,o),
(344,60,o),
(300,60,qs),
(256,60,o),
(183,103,o),
(140,176,o),
(140,220,qs)
);
}
);
width = 600;
},
{
layerId = "24904F53-3A70-4935-90A9-E5F7B2CEF4ED";
shapes = (
{
closed = 1;
nodes = (
(90,220,ls),
(90,153,o),
(140,44,o),
(235,-20,o),
(300,-20,qs),
(366,-20,o),
(492,45,o),
(570,156,o),
(570,220,qs),
(570,280,ls),
(570,341,o),
(484,450,o),
(424,486,q),
(467,523,o),
(520,592,o),
(520,630,qs),
(520,681,o),
(455,768,o),
(352,820,o),
(300,820,qs),
(249,820,o),
(177,770,o),
(140,683,o),
(140,630,qs),
(140,623,o),
(140,615,qs),
(140,564,o),
(151,507,o),
(176,486,q),
(127,457,o),
(90,354,o),
(90,280,qs)
);
},
{
closed = 1;
nodes = (
(220,680,o),
(257,740,o),
(300,740,qs),
(331,740,o),
(397,710,o),
(440,659,o),
(440,630,qs),
(440,601,o),
(397,550,o),
(331,520,o),
(300,520,qs),
(257,520,o),
(220,580,o),
(220,630,qs)
);
},
{
closed = 1;
nodes = (
(170,280,ls),
(170,326,o),
(199,398,o),
(257,440,o),
(300,440,qs),
(345,440,o),
(433,397,o),
(490,323,o),
(490,280,qs),
(490,220,ls),
(490,177,o),
(433,103,o),
(345,60,o),
(300,60,qs),
(257,60,o),
(199,102,o),
(170,174,o),
(170,220,qs)
);
}
);
width = 600;
},
{
layerId = "122BFFFD-FA2E-4F8F-B493-3A50D9628590";
shapes = (
{
closed = 1;
nodes = (
(90,220,ls),
(90,154,o),
(140,60,o),
(234,10,o),
(300,10,qs),
(368,10,o),
(493,61,o),
(570,156,o),
(570,220,qs),
(570,280,ls),
(570,341,o),
(484,450,o),
(424,486,q),
(467,523,o),
(520,592,o),
(520,630,qs),
(520,681,o),
(454,784,o),
(351,850,o),
(300,850,qs),
(250,850,o),
(177,786,o),
(140,685,o),
(140,630,qs),
(140,623,o),
(140,615,qs),
(140,564,o),
(151,507,o),
(176,486,q),
(127,457,o),
(90,354,o),
(90,280,qs)
);
},
{
closed = 1;
nodes = (
(220,685,o),
(258,770,o),
(300,770,qs),
(330,770,o),
(396,726,o),
(440,660,o),
(440,630,qs),
(440,601,o),
(398,566,o),
(334,550,o),
(300,550,qs),
(254,550,o),
(220,584,o),
(220,630,qs)
);
},
{
closed = 1;
nodes = (
(170,280,ls),
(170,327,o),
(199,414,o),
(258,470,o),
(300,470,qs),
(343,470,o),
(432,413,o),
(490,324,o),
(490,280,qs),
(490,220,ls),
(490,177,o),
(434,119,o),
(347,90,o),
(300,90,qs),
(255,90,o),
(198,118,o),
(170,175,o),
(170,220,qs)
);
}
);
width = 600;
}
);
note = eight;
unicode = 56;
},
{
glyphname = nine;
layers = (
{
layerId = m01;
shapes = (
{
closed = 1;
nodes = (
(540,580,ls),
(540,645,o),
(476,756,o),
(365,820,o),
(300,820,qs),
(235,820,o),
(124,756,o),
(60,645,o),
(60,580,qs),
(60,520,ls),
(60,455,o),
(124,344,o),
(235,280,o),
(300,280,qs),
(346,280,o),
(428,312,o),
(460,341,q),
(460,220,ls),
(460,176,o),
(417,103,o),
(344,60,o),
(300,60,qs),
(256,60,o),
(182,103,o),
(140,176,o),
(140,220,q),
(60,220,l),
(60,155,o),
(124,44,o),
(235,-20,o),
(300,-20,qs),
(365,-20,o),
(476,44,o),
(540,155,o),
(540,220,qs)
);
},
{
closed = 1;
nodes = (
(460,520,ls),
(460,476,o),
(417,403,o),
(344,360,o),
(300,360,qs),
(256,360,o),
(183,403,o),
(140,476,o),
(140,520,qs),
(140,580,ls),
(140,624,o),
(182,697,o),
(256,740,o),
(300,740,qs),
(344,740,o),
(417,697,o),
(460,624,o),
(460,580,qs)
);
}
);
width = 600;
},
{
layerId = "24904F53-3A70-4935-90A9-E5F7B2CEF4ED";
shapes = (
{
closed = 1;
nodes = (
(570,580,ls),
(570,644,o),
(492,755,o),
(366,820,o),
(300,820,qs),
(235,820,o),
(140,756,o),
(90,647,o),
(90,580,qs),
(90,520,ls),
(90,453,o),
(140,344,o),
(235,280,o),
(300,280,qs),
(350,280,o),
(470,314,o),
(500,341,q),
(490,220,ls),
(487,177,o),
(430,103,o),
(344,60,o),
(300,60,qs),
(256,60,o),
(182,103,o),
(140,176,o),
(140,220,q),
(60,220,l),
(60,155,o),
(124,44,o),
(235,-20,o),
(300,-20,qs),
(366,-20,o),
(492,45,o),
(570,156,o),
(570,220,qs)
);
},
{
closed = 1;
nodes = (
(490,520,ls),
(490,477,o),
(433,403,o),
(345,360,o),
(300,360,qs),
(257,360,o),
(199,402,o),
(170,474,o),
(170,520,qs),
(170,580,ls),
(170,626,o),
(199,698,o),
(257,740,o),
(300,740,qs),
(345,740,o),
(433,697,o),
(490,623,o),
(490,580,qs)
);
}
);
width = 600;
},
{
layerId = "122BFFFD-FA2E-4F8F-B493-3A50D9628590";
shapes = (
{
closed = 1;
nodes = (
(570,580,ls),
(570,645,o),
(491,771,o),
(365,850,o),
(300,850,qs),
(236,850,o),
(141,773,o),
(90,648,o),
(90,580,qs),
(90,520,ls),
(90,454,o),
(140,360,o),
(234,310,o),
(300,310,qs),
(350,310,o),
(470,344,o),
(500,371,q),
(490,220,ls),
(487,177,o),
(430,103,o),
(344,60,o),
(300,60,qs),
(257,60,o),
(198,102,o),
(169,174,o),
(170,220,q),
(90,220,l),
(90,153,o),
(140,44,o),
(235,-20,o),
(300,-20,qs),
(366,-20,o),
(492,45,o),
(570,156,o),
(570,220,qs)
);
},
{
closed = 1;
nodes = (
(490,520,ls),
(490,478,o),
(434,419,o),
(347,390,o),
(300,390,qs),
(255,390,o),
(198,418,o),
(170,475,o),
(170,520,qs),
(170,580,ls),
(170,627,o),
(199,714,o),
(258,770,o),
(300,770,qs),
(343,770,o),
(432,712,o),
(490,623,o),
(490,580,qs)
);
}
);
width = 600;
}
);
note = nine;
unicode = 57;
},
{
glyphname = exclam;
layers = (
{
layerId = m01;
shapes = (
{
closed = 1;
nodes = (
(170,800,l),
(90,800,l),
(90,260,l),
(170,260,l)
);
},
{
closed = 1;
nodes = (
(180,160,l),
(80,160,l),
(80,0,l),
(180,0,l)
);
}
);
width = 260;
},
{
layerId = "24904F53-3A70-4935-90A9-E5F7B2CEF4ED";
shapes = (
{
closed = 1;
nodes = (
(170,800,l),
(90,800,l),
(90,260,l),
(170,260,l)
);
},
{
closed = 1;
nodes = (
(180,160,l),
(80,160,l),
(80,0,l),
(180,0,l)
);
}
);
width = 260;
},
{
layerId = "122BFFFD-FA2E-4F8F-B493-3A50D9628590";
shapes = (
{
closed = 1;
nodes = (
(170,800,l),
(90,800,l),
(90,260,l),
(170,260,l)
);
},
{
closed = 1;
nodes = (
(180,160,l),
(80,160,l),
(80,0,l),
(180,0,l)
);
}
);
width = 260;
}
);
note = exclam;
unicode = 33;
},
{
glyphname = question;
layers = (
{
layerId = m01;
shapes = (
{
closed = 1;
nodes = (
(60,373,o),
(102,302,o),
(173,260,o),
(215,260,qs),
(520,260,l),
(520,340,l),
(215,340,ls),
(184,340,o),
(140,384,o),
(140,415,qs),
(140,447,o),
(184,490,o),
(215,490,qs),
(365,490,ls),
(407,490,o),
(478,532,o),
(520,603,o),
(520,645,qs),
(520,687,o),
(478,758,o),
(407,800,o),
(365,800,qs),
(60,800,l),
(60,720,l),
(365,720,ls),
(397,720,o),
(440,677,o),
(440,645,qs),
(440,614,o),
(397,570,o),
(365,570,qs),
(215,570,ls),
(173,570,o),
(102,528,o),
(60,457,o),
(60,415,qs)
);
},
{
closed = 1;
nodes = (
(340,0,l),
(340,160,l),
(240,160,l),
(240,0,l)
);
}
);
width = 580;
},
{
layerId = "24904F53-3A70-4935-90A9-E5F7B2CEF4ED";
shapes = (
{
closed = 1;
nodes = (
(60,373,o),
(102,302,o),
(173,260,o),
(215,260,qs),
(520,260,l),
(520,340,l),
(215,340,ls),
(184,340,o),
(140,384,o),
(140,415,qs),
(140,447,o),
(184,490,o),
(215,490,qs),
(365,490,ls),
(407,490,o),
(478,532,o),
(520,603,o),
(520,645,qs),
(520,687,o),
(478,758,o),
(407,800,o),
(365,800,qs),
(60,800,l),
(60,720,l),
(365,720,ls),
(397,720,o),
(440,677,o),
(440,645,qs),
(440,614,o),
(397,570,o),
(365,570,qs),
(215,570,ls),
(173,570,o),
(102,528,o),
(60,457,o),
(60,415,qs)
);
},
{
closed = 1;
nodes = (
(340,0,l),
(340,160,l),
(240,160,l),
(240,0,l)
);
}
);
width = 580;
},
{
layerId = "122BFFFD-FA2E-4F8F-B493-3A50D9628590";
shapes = (
{
closed = 1;
nodes = (
(60,373,o),
(102,302,o),
(173,260,o),
(215,260,qs),
(520,260,l),
(520,340,l),
(215,340,ls),
(184,340,o),
(140,384,o),
(140,415,qs),
(140,447,o),
(184,490,o),
(215,490,qs),
(365,490,ls),
(407,490,o),
(478,532,o),
(520,603,o),
(520,645,qs),
(520,687,o),
(478,758,o),
(407,800,o),
(365,800,qs),
(60,800,l),
(60,720,l),
(365,720,ls),
(397,720,o),
(440,677,o),
(440,645,qs),
(440,614,o),
(397,570,o),
(365,570,qs),
(215,570,ls),
(173,570,o),
(102,528,o),
(60,457,o),
(60,415,qs)
);
},
{
closed = 1;
nodes = (
(340,0,l),
(340,160,l),
(240,160,l),
(240,0,l)
);
}
);
width = 580;
}
);
note = question;
unicode = 63;
},
{
glyphname = asterisk;
layers = (
{
layerId = m01;
shapes = (
{
closed = 1;
nodes = (
(110,482,l),
(248,562,l),
(305,617,l),
(286,540,l),
(286,380,l),
(386,380,l),
(386,540,l),
(367,617,l),
(424,562,l),
(562,482,l),
(612,568,l),
(474,648,l),
(398,670,l),
(473,692,l),
(612,772,l),
(562,858,l),
(423,778,l),
(367,724,l),
(386,800,l),
(386,960,l),
(286,960,l),
(286,800,l),
(305,724,l),
(249,778,l),
(110,858,l),
(60,772,l),
(199,692,l),
(274,670,l),
(198,648,l),
(60,568,l)
);
}
